<?xml version="1.0" encoding="UTF-8" standalone="no"?>
<!-- Created with Inkscape (http://www.inkscape.org/) -->

<svg
   width="369"
   height="369"
   viewBox="0 0 97.63125 97.631253"
   version="1.1"
   id="svg1"
   sodipodi:docname="profile.svg"
   inkscape:version="1.4.2 (f4327f4, 2025-05-13)"
   xmlns:inkscape="http://www.inkscape.org/namespaces/inkscape"
   xmlns:sodipodi="http://sodipodi.sourceforge.net/DTD/sodipodi-0.dtd"
   xmlns:xlink="http://www.w3.org/1999/xlink"
   xmlns="http://www.w3.org/2000/svg"
   xmlns:svg="http://www.w3.org/2000/svg">
  <sodipodi:namedview
     id="namedview1"
     pagecolor="#ffffff"
     bordercolor="#000000"
     borderopacity="0.25"
     inkscape:showpageshadow="2"
     inkscape:pageopacity="0.0"
     inkscape:pagecheckerboard="0"
     inkscape:deskcolor="#d1d1d1"
     inkscape:zoom="1.1631811"
     inkscape:cx="199.45304"
     inkscape:cy="261.78212"
     inkscape:window-width="1440"
     inkscape:window-height="829"
     inkscape:window-x="-8"
     inkscape:window-y="-8"
     inkscape:window-maximized="1"
     inkscape:current-layer="svg1" />
  <defs
     id="defs1">
    <linearGradient
       xlink:href="#linearGradient12685"
       id="linearGradient12687"
       x1="107.03213"
       y1="61.031052"
       x2="103.83016"
       y2="219.51115"
       gradientUnits="userSpaceOnUse"
       gradientTransform="matrix(1.0922843,0,0,1.0922843,-38.90579,-65.829382)" />
    <linearGradient
       id="linearGradient12685">
      <stop
         style="stop-color:#00ffff;stop-opacity:1;"
         offset="0.22835918"
         id="stop12681" />
      <stop
         style="stop-color:#0000ff;stop-opacity:1;"
         offset="0.70677894"
         id="stop12683" />
    </linearGradient>
    <linearGradient
       xlink:href="#linearGradient12685"
       id="linearGradient12687-3"
       x1="107.03213"
       y1="61.031052"
       x2="103.83016"
       y2="219.51115"
       gradientUnits="userSpaceOnUse"
       gradientTransform="matrix(0.94664586,0,0,0.94664586,151.48988,10.536319)" />
    <linearGradient
       xlink:href="#linearGradient12685"
       id="linearGradient12687-3-5"
       x1="107.03213"
       y1="61.031052"
       x2="103.83016"
       y2="219.51115"
       gradientUnits="userSpaceOnUse"
       gradientTransform="matrix(0.94664588,0,0,0.94664588,151.48988,10.536319)" />
    <linearGradient
       xlink:href="#linearGradient12685"
       id="linearGradient12687-3-55"
       x1="107.03213"
       y1="61.031052"
       x2="103.83016"
       y2="219.51115"
       gradientUnits="userSpaceOnUse"
       gradientTransform="matrix(0.94664588,0,0,0.94664588,151.48988,10.53632)" />
    <linearGradient
       xlink:href="#linearGradient12685"
       id="linearGradient12687-3-2"
       x1="107.03213"
       y1="61.031052"
       x2="103.83016"
       y2="219.51115"
       gradientUnits="userSpaceOnUse"
       gradientTransform="matrix(0.94664588,0,0,0.94664588,151.48988,10.536323)" />
    <linearGradient
       xlink:href="#linearGradient12685"
       id="linearGradient12687-3-22"
       x1="107.03213"
       y1="61.031052"
       x2="103.83016"
       y2="219.51115"
       gradientUnits="userSpaceOnUse"
       gradientTransform="matrix(0.42781109,0,0,0.42781109,2.4889393,-10.991275)" />
    <filter
       inkscape:collect="always"
       style="color-interpolation-filters:sRGB"
       id="filter4"
       x="-0.41992877"
       y="-0.44478578"
       width="1.8398575"
       height="1.8895716">
      <feGaussianBlur
         inkscape:collect="always"
         stdDeviation="39.227638"
         id="feGaussianBlur4" />
    </filter>
    <filter
       inkscape:collect="always"
       style="color-interpolation-filters:sRGB"
       id="filter1"
       x="-0.047994413"
       y="-0.048005587"
       width="1.0959888"
       height="1.0960112">
      <feGaussianBlur
         inkscape:collect="always"
         stdDeviation="1.2436864"
         id="feGaussianBlur1" />
    </filter>
  </defs>
  <rect
     style="fill:#030f1b;fill-opacity:1;stroke-width:2.26748"
     id="rect2"
     width="97.631248"
     height="97.631248"
     x="0"
     y="0" />
  <ellipse
     style="opacity:0.1;fill:#00ffff;fill-opacity:1;stroke-width:0.897839;stroke-dasharray:none;filter:url(#filter4)"
     id="path4"
     cx="254"
     cy="142.875"
     rx="112.09798"
     ry="105.83334"
     transform="matrix(0.41420097,0,0,0.41420097,-56.391418,-10.363338)" />
  <path
     id="path58-7"
     style="baseline-shift:baseline;display:inline;overflow:visible;vector-effect:none;fill:#00ffff;stroke-width:0.635952;enable-background:accumulate;stop-color:#000000;filter:url(#filter1)"
     d="m 60.06995,17.737069 c -1.615131,0.0707 -3.23649,0.47253 -4.675848,1.21629 -2.020586,1.04407 -3.725556,2.87044 -4.649557,4.94467 -0.604918,1.35793 -0.76495,2.83428 -1.272812,4.21937 -0.251733,0.68655 -0.602629,1.30472 -1.050981,1.8821 -0.504259,0.64937 -1.145459,1.18411 -1.771026,1.71253 -0.767326,0.64817 -1.545445,1.2846 -2.307688,1.93863 -0.884273,0.75872 -1.765864,1.52443 -2.580129,2.35896 -0.902003,0.92442 -1.729912,1.91836 -2.513418,2.94458 -1.037878,1.3594 -1.9717,2.81718 -2.804916,4.31041 -0.250139,0.44827 -0.487128,0.90699 -0.716757,1.36614 -0.08648,0.17292 -0.160333,0.36333 -0.252394,0.537 -0.787303,0.004 -1.423335,0.64356 -1.423327,1.43088 2e-6,0.79025 0.64063,1.43088 1.430885,1.43089 0.790255,-1e-5 1.430884,-0.64064 1.430886,-1.43089 -3.3e-5,-0.32755 -0.112441,-0.64516 -0.318449,-0.89981 0.08554,-0.27362 0.267308,-0.54489 0.392393,-0.79497 0.36344,-0.72662 0.773773,-1.42876 1.191637,-2.12497 1.171112,-1.95121 2.514354,-3.79802 4.065898,-5.46392 0.578837,-0.62149 1.173157,-1.26437 1.854827,-1.77661 0.7963,-0.59837 1.680433,-1.07746 2.641585,-1.35267 1.810603,-0.51843 3.899995,-0.35198 5.526032,0.62342 0.840397,0.50413 1.567283,1.16701 2.105578,1.98991 0.241838,0.36969 0.491207,0.8704 1.021733,0.71937 0.465865,-0.13261 0.480781,-0.67077 0.261923,-1.02304 -0.486609,-0.78322 -1.067441,-1.47433 -1.779898,-2.06154 -1.223103,-1.0081 -2.823596,-1.62182 -4.402751,-1.72995 -0.409829,-0.0281 -0.866212,-0.0365 -1.275112,0.002 -0.304304,0.0289 -0.607281,0.0922 -0.910981,0.11634 0.335202,-0.41469 0.831865,-0.72038 1.214314,-1.09337 0.768617,-0.74961 1.376133,-1.5515 1.84431,-2.51901 0.628198,-1.29819 0.760435,-2.78164 1.254408,-4.12834 0.837343,-2.28281 2.575931,-4.19255 4.765237,-5.25062 2.652628,-1.28201 6.095095,-1.28496 8.592545,0.34801 0.883236,0.57752 1.739682,1.36271 2.104263,2.38328 0.0678,0.18979 0.172149,0.497 0.08972,0.69507 -0.08716,0.20945 -0.471601,0.34435 -0.645443,0.48277 -0.378962,0.30175 -0.684448,0.68516 -0.884363,1.12886 -0.339448,0.7534 -0.40864,1.55786 -0.487039,2.36784 -0.09493,0.98074 -0.164825,1.9638 -0.262911,2.94458 -0.08167,0.8166 -0.199717,1.63884 -0.121595,2.45887 0.09127,0.95808 0.351096,1.88706 0.559011,2.82299 0.233158,1.04955 0.421915,2.11634 0.523848,3.18712 0.314047,3.29893 -0.545588,6.60809 -2.110836,9.50156 -0.510791,0.94423 -1.09269,1.89027 -1.800931,2.70139 0.141596,-0.50375 0.174618,-1.11934 0.113051,-1.63924 -0.02509,-0.21191 -0.04917,-0.42828 -0.09333,-0.63722 -0.02146,-0.10151 -0.0734,-0.21103 -0.04502,-0.31648 0.03201,-0.11883 0.138958,-0.22018 0.205398,-0.32108 0.130836,-0.19869 0.256947,-0.40255 0.378591,-0.607 0.33361,-0.5607 0.613908,-1.17498 0.827836,-1.79107 0.129675,-0.37344 0.252329,-0.76053 0.305303,-1.15351 0.05961,-0.44218 0.03911,-0.89007 0.03911,-1.33558 v -2.03393 -1.82131 c 0,-0.28851 0.04925,-0.6283 -0.01183,-0.91066 -0.0944,-0.43645 -0.618989,-0.63444 -0.990183,-0.41047 -0.292399,0.17643 -0.333876,0.49347 -0.333895,0.80516 -2.2e-5,0.36964 0.0079,0.73892 0.0099,1.1085 0.0052,0.99684 0.01048,1.99533 -0.0049,2.99191 -0.01207,0.79798 0.02472,1.54062 -0.260937,2.30441 -0.24196,0.64694 -0.566329,1.26549 -0.930372,1.85186 -0.214473,0.34545 -0.537376,0.68341 -0.619809,1.09272 -0.04108,0.204 0.06388,0.43949 0.109436,0.63756 0.07772,0.33797 0.121592,0.68649 0.145258,1.03192 0.07371,1.07597 -0.253048,2.10298 -0.765725,3.03562 -0.602664,1.09633 -1.606635,1.90677 -2.571256,2.67149 -1.030313,0.81678 -2.129864,1.57857 -3.27914,2.21994 -1.150321,0.64195 -2.348426,1.18986 -3.552567,1.72173 -0.749561,0.33108 -1.510657,0.63904 -2.277126,0.92807 -0.406186,0.15317 -0.847129,0.36872 -1.275113,0.44235 0.191321,-0.52543 0.554395,-1.03543 0.836382,-1.51798 0.387496,-0.6631 0.731733,-1.35786 1.09732,-2.0336 0.211477,-0.39089 0.636715,-1.05967 0.100233,-1.39671 -0.07307,-0.0459 -0.157079,-0.0745 -0.242533,-0.0851 -0.587554,-0.0732 -0.754265,0.55793 -0.984597,0.96554 -0.755998,1.33786 -1.467083,2.70072 -2.22553,4.0373 -1.332274,2.3478 -2.63255,4.71009 -4.044865,7.01213 -0.833541,1.35864 -1.678778,2.70827 -2.646843,3.97683 -1.257454,1.64781 -2.816078,3.43462 -4.854626,4.09778 2.511969,-3.67638 4.726535,-7.54211 7.025931,-11.35277 0.40615,-0.67309 0.81332,-1.34852 1.19821,-2.03393 0.152859,-0.27221 0.384533,-0.54665 0.470609,-0.84985 0.156291,-0.55052 -0.375316,-1.03285 -0.891264,-0.74634 -0.161753,0.0898 -0.254261,0.25851 -0.346055,0.41244 -0.14969,0.25102 -0.294235,0.50549 -0.439716,0.75883 -0.52819,0.91975 -1.091401,1.82236 -1.63727,2.73195 -1.328255,2.21329 -2.611253,4.45313 -3.970593,6.64767 -0.828981,1.33833 -1.652625,2.68474 -2.597547,3.94628 -0.732655,0.97815 -1.550803,1.96428 -2.577172,2.64618 -0.436148,0.28977 -0.965648,0.57381 -1.487739,0.66254 0.2196,-0.37617 0.408852,-0.7706 0.616523,-1.15352 0.542065,-0.99956 1.109081,-1.98803 1.673748,-2.97482 1.724345,-3.01345 3.485152,-6.00465 5.213826,-9.0155 0.847839,-1.47671 1.721356,-2.93894 2.592947,-4.40144 0.239296,-0.40155 0.465136,-0.81145 0.702627,-1.21432 0.120352,-0.20415 0.22264,-0.45786 0.383848,-0.6323 0.187058,-0.20241 0.462772,-0.33633 0.688165,-0.49164 0.375772,-0.25893 0.736335,-0.53458 1.093046,-0.81895 0.179301,-0.14294 0.353735,-0.29345 0.51629,-0.45517 0.08928,-0.0888 0.180364,-0.19874 0.284929,-0.28 0.162478,0.0619 0.334871,0.0936 0.508729,0.0937 0.790256,0 1.430883,-0.64063 1.430886,-1.43088 -2e-6,-0.79026 -0.640629,-1.43089 -1.430886,-1.43089 -0.790255,0 -1.430883,0.64063 -1.430885,1.43089 -1.9e-5,0.1622 0.02754,0.32323 0.0815,0.47619 -0.104139,0.13514 -0.264135,0.2439 -0.385491,0.35394 -0.372782,0.33804 -0.766984,0.66633 -1.18408,0.94878 -2.339385,1.58418 -4.988547,2.66176 -7.621093,3.65346 -0.719935,0.2712 -1.445572,0.53751 -2.17985,0.76901 -0.0073,0.002 -0.01468,0.005 -0.02202,0.007 -0.02507,0.008 -0.05017,0.0159 -0.07526,0.0237 -0.007,0.002 -0.01403,0.004 -0.02103,0.007 -0.348069,0.10783 -0.700225,0.20374 -1.055255,0.2892 a 0.01682621,0.01682621 0 0 1 -0.0161,-0.0168 0.01682621,0.01682621 0 0 1 9.86e-4,-0.006 l 2.838438,-6.08702 7.815318,-7.81531 c 0.0417,-0.0417 0.07665,-0.0872 0.105164,-0.13573 l 1.01286,-1.01286 0.0043,-0.004 c 0.130383,-0.13039 0.194458,-0.30111 0.192581,-0.47127 -3e-6,-3.3e-4 4e-6,-5.1e-4 0,-9.9e-4 v -2.75266 l 3.209142,-3.2088 c 0.13198,0.0399 0.272013,0.0615 0.417368,0.0615 0.792714,-1e-5 1.430885,-0.63818 1.430885,-1.43089 0,-0.79272 -0.638171,-1.43089 -1.430885,-1.43089 -0.792713,0 -1.430886,0.63817 -1.430885,1.43089 -10e-7,0.14535 0.02152,0.28539 0.06145,0.41737 l -3.405337,3.40566 c -0.04757,0.0476 -0.08593,0.10061 -0.116338,0.15676 -0.02105,0.0389 -0.03811,0.0791 -0.05094,0.12061 -0.01327,0.0429 -0.02249,0.0868 -0.02695,0.13113 -0.0023,0.0229 -0.0037,0.0457 -0.0036,0.0687 -10e-7,6.1e-4 1e-6,10e-4 0,0.002 v 2.79834 l -0.821264,0.82094 -3.28e-4,3.2e-4 c -0.03498,0.0237 -0.0682,0.0511 -0.09925,0.0822 l -7.852453,7.85279 c -0.01669,0.0167 -0.0324,0.034 -0.047,0.0519 -0.05608,0.0551 -0.103395,0.12117 -0.138685,0.19685 l -0.0089,0.0191 c -2.92e-4,5.8e-4 -6.69e-4,10e-4 -9.87e-4,0.002 -0.0026,0.005 -0.005,0.0107 -0.0076,0.0161 l -1.822291,3.90848 -1.623468,3.48125 c -0.0024,0.005 -0.0046,0.0103 -0.0069,0.0154 l -0.01019,0.0217 c -0.157582,0.33794 -0.01259,0.73664 0.325351,0.89422 0.08983,0.0419 0.18393,0.0622 0.276712,0.0634 0.09754,0.004 0.199655,-0.01 0.302017,-0.0345 0.629669,-0.15062 1.277026,-0.34949 1.882433,-0.57873 0.810152,-0.30676 1.645966,-0.54731 2.45952,-0.84558 0.992084,-0.36372 1.970064,-0.77598 2.945245,-1.18177 0.478058,-0.19893 0.95335,-0.40259 1.426942,-0.61193 0.303324,-0.13408 0.640238,-0.25819 0.910981,-0.45089 -0.06137,0.20861 -0.20048,0.38945 -0.308261,0.57676 -0.211014,0.36671 -0.429304,0.72883 -0.645114,1.09272 -0.63391,1.06889 -1.248555,2.14883 -1.882433,3.21768 -1.371775,2.31308 -2.693387,4.65576 -4.04355,6.98157 -0.421025,0.72526 -0.814484,1.46656 -1.245863,2.18577 -0.706409,1.17772 -1.304489,2.42014 -1.985626,3.61237 -0.234086,0.40974 -0.640501,1.06213 -0.40751,1.54789 0.127886,0.266644 0.462827,0.391374 0.741406,0.394684 0.588979,0.007 1.250079,-0.15002 1.7914,-0.376944 0.750703,-0.31469 1.430065,-0.78419 2.034264,-1.32802 0.204045,-0.18366 0.402968,-0.38274 0.592532,-0.58136 0.106427,-0.11151 0.215135,-0.26954 0.351642,-0.34474 0.130338,-0.0718 0.336572,-0.0505 0.483096,-0.0707 0.276595,-0.038 0.552789,-0.10015 0.819621,-0.18273 0.908717,-0.28121 1.718498,-0.74172 2.489754,-1.29121 1.269601,-0.90455 2.293653,-2.09636 3.23839,-3.32219 1.402343,-1.81958 2.619735,-3.80966 3.766838,-5.79781 0.601274,-1.04214 1.217667,-2.07611 1.804218,-3.12666 0.163613,-0.29305 0.335208,-0.58381 0.492625,-0.88009 0.07275,-0.13691 0.121311,-0.30831 0.263568,-0.39042 0.160326,-0.0925 0.39649,-0.10737 0.575443,-0.15216 0.169617,-0.0424 0.341146,-0.10973 0.516289,-0.12258 0.421039,-0.0309 0.841453,0.0656 1.244877,0.17484 0.567712,0.15372 1.119263,0.3589 1.63957,0.63524 0.527224,0.28003 1.108151,0.7152 1.121639,1.37272 0.01021,0.49735 -0.405012,0.81328 -0.787742,1.04409 -0.283562,0.171 -0.589506,0.3443 -0.599435,0.71643 -0.0146,0.54738 0.581442,0.7137 0.994127,0.50807 0.336253,-0.16755 0.670898,-0.39801 0.938588,-0.66188 0.92421,-0.91099 0.858563,-2.39208 -0.03024,-3.30542 -0.603364,-0.62003 -1.480667,-1.00019 -2.274497,-1.30634 v -0.0306 c 1.199889,-0.40583 2.390221,-0.95981 3.522003,-1.52521 0.292759,-0.14625 0.598027,-0.28344 0.880419,-0.44826 0.197623,-0.11534 0.441645,-0.30471 0.668119,-0.35 0.129882,-0.026 0.298226,0.0206 0.424927,0.0509 0.285147,0.0683 0.569891,0.15177 0.850185,0.23793 0.915541,0.28144 1.867114,0.57299 2.702383,1.05066 0.293614,0.16791 0.614673,0.3316 0.840324,0.59056 0.433619,0.49764 0.274431,1.12806 -0.172534,1.54427 -0.183974,0.17132 -0.464592,0.28863 -0.611594,0.4913 -0.222509,0.30678 -0.08493,0.83587 0.307933,0.92611 0.440703,0.10122 0.747211,-0.17124 1.062813,-0.43151 0.828578,-0.68328 1.21733,-1.83522 0.717414,-2.83482 -0.241155,-0.48219 -0.662256,-0.82532 -1.112107,-1.10586 -0.700546,-0.43688 -1.475067,-0.73783 -2.246892,-1.02075 -0.389103,-0.14262 -0.779758,-0.32971 -1.184079,-0.42328 0.13096,-0.17737 0.334995,-0.28383 0.516288,-0.40488 0.277978,-0.18561 0.550909,-0.38232 0.819622,-0.58103 0.813423,-0.6015 1.588024,-1.255 2.337923,-1.93338 0.871954,-0.78878 1.660393,-1.67252 2.411867,-2.57519 1.29437,-1.5548 2.420548,-3.27638 3.239705,-5.13003 1.328532,-3.00629 1.758091,-6.34245 1.353656,-9.59226 -0.162358,-1.30461 -0.517873,-2.56649 -0.758495,-3.85524 -0.06789,-0.36359 -0.133043,-0.72541 -0.178778,-1.09272 -0.01404,-0.11278 -0.08962,-0.27694 -0.05915,-0.38778 0.02908,-0.10574 0.187932,-0.1164 0.276384,-0.13442 0.28956,-0.059 0.575787,-0.13224 0.850183,-0.24286 0.727133,-0.29313 1.392871,-0.81966 1.730603,-1.54197 0.213725,0.16728 0.310213,0.45316 0.408167,0.69803 0.221532,0.55377 0.32022,1.14931 0.624083,1.6698 0.181041,-0.061 0.322176,-0.20093 0.455491,-0.33422 0.267329,-0.26734 0.508769,-0.56578 0.718356,-0.88012 1.110925,-1.66618 1.017889,-3.92571 0.04535,-5.61575 -0.438232,-0.76221 -1.036239,-1.37638 -1.674733,-1.97051 -0.26335,-0.24505 -0.601746,-0.4463 -0.821592,-0.73384 -0.202666,-0.26507 -0.2061,-0.66081 -0.312205,-0.96883 -0.179759,-0.52183 -0.440897,-0.98789 -0.775584,-1.42662 -1.711136,-2.24306 -4.647897,-3.18422 -7.381516,-3.06453 z m 1.593232,4.86843 c -1.296153,-1.3e-4 -2.34692,1.05065 -2.346798,2.34679 5.7e-5,1.29603 1.050772,2.3466 2.346798,2.34647 1.295897,-5e-5 2.346411,-1.05057 2.346468,-2.34647 1.21e-4,-1.29601 -1.050443,-2.34674 -2.346468,-2.34679 z m 0,1.17323 c 0.648079,3e-5 1.173386,0.52548 1.173234,1.17356 -3.3e-5,0.64795 -0.525289,1.17321 -1.173234,1.17324 -0.648072,1.5e-4 -1.173531,-0.52516 -1.173563,-1.17324 -1.53e-4,-0.6482 0.525362,-1.17371 1.173563,-1.17356 z m -5.451431,0.187 c -0.193725,-0.002 -0.386731,0.0802 -0.521548,0.24088 l -1.189666,1.41774 c -0.120385,0.14348 -0.170783,0.32183 -0.155117,0.49395 -0.0018,0.0203 -0.0031,0.041 -0.003,0.0618 v 4.09022 c -1.48e-4,0.023 0.0014,0.046 0.0036,0.069 1.82e-4,0.002 6.57e-4,0.003 6.57e-4,0.005 0.01341,0.12911 0.06373,0.25579 0.153802,0.36314 l 4.169419,4.96933 v 8.8732 l -0.794973,0.94745 c -0.209716,0.24993 -0.177302,0.62009 0.07263,0.82981 l 0.128825,0.10812 c 0.249931,0.20972 0.620092,0.1773 0.829808,-0.0726 l 0.971452,-1.15778 c 0.09808,-0.11689 0.143338,-0.25987 0.138027,-0.40061 2.31e-4,-0.008 3.3e-4,-0.0156 3.29e-4,-0.0233 v -9.34282 c -1.9e-5,-0.001 -2e-5,-0.002 0,-0.004 8.27e-4,-0.15378 -0.05103,-0.30886 -0.158075,-0.43643 l -4.169361,-4.96934 v -3.72543 l 1.032907,-1.23108 c 0.239674,-0.28563 0.202817,-0.70844 -0.08282,-0.94812 -0.124964,-0.10485 -0.276225,-0.15677 -0.426899,-0.15806 z m 11.509526,0.48144 c 0.215452,-0.0158 0.377558,0.10124 0.546523,0.21822 0.341206,0.23623 0.653857,0.51693 0.933659,0.82422 0.793845,0.87184 1.427921,1.92566 1.403937,3.14374 -0.01153,0.58562 -0.171914,1.14141 -0.333566,1.70005 h -0.0608 c -0.413898,-0.98868 -1.384848,-1.73357 -2.398722,-2.02079 -0.353255,-0.10008 -0.728014,-0.15552 -1.093047,-0.19028 -0.121636,-0.0116 -0.341355,0.0352 -0.424271,-0.0812 -0.05666,-0.0795 -0.01989,-0.20044 -0.0095,-0.28821 0.02737,-0.23182 0.03101,-0.46614 0.06113,-0.69803 0.09304,-0.7162 0.173019,-1.5073 0.635912,-2.09441 0.170577,-0.2164 0.447062,-0.49198 0.738745,-0.51334 z m -1.385205,4.84839 c 0.09011,-0.006 0.196411,0.0195 0.261924,0.0273 0.300267,0.0355 0.586033,0.0731 0.880418,0.1492 0.094,0.0243 0.279004,0.0527 0.329953,0.14789 0.07188,0.13423 -0.213984,0.40721 -0.29216,0.50084 -0.356308,0.42675 -0.926218,0.77766 -1.495297,0.78939 0.04854,-0.38395 0.06715,-0.76982 0.11305,-1.15352 0.01396,-0.1167 -0.01041,-0.31049 0.06967,-0.40685 0.0301,-0.0362 0.07838,-0.0508 0.132441,-0.0542 z m -15.890259,7.66874 c -1.32455,0 -2.412195,1.08732 -2.412195,2.41187 0,0.42124 0.110039,0.81875 0.302674,1.1647 l -4.869743,4.86974 c -0.263659,0.26365 -0.263659,0.68807 0,0.95173 0.263658,0.26366 0.688074,0.26366 0.951732,0 l 4.871716,-4.87172 h 3.29e-4 c 0.343832,0.18955 0.737891,0.29775 1.155487,0.29775 1.32455,0 2.412197,-1.08764 2.412197,-2.4122 0,-1.32455 -1.087647,-2.41187 -2.412197,-2.41187 z m 0.08413,1.38028 c 0.602095,0 1.06577,0.46335 1.06577,1.06544 0,0.6021 -0.463675,1.06578 -1.06577,1.06578 -0.602095,0 -1.06577,-0.46368 -1.06577,-1.06578 0,-0.60209 0.463676,-1.06544 1.06577,-1.06544 z m 5.143498,2.38953 c -0.790255,0 -1.430883,0.64062 -1.430886,1.43087 5.4e-5,0.42943 0.192966,0.83612 0.525491,1.10784 -0.0097,0.25188 -0.172,0.54888 -0.26028,0.78117 -0.214059,0.56327 -0.43766,1.12674 -0.700327,1.66947 -1.098983,2.27083 -2.781329,4.41889 -4.81979,5.91515 -0.04138,0.0304 -0.08304,0.0469 -0.124882,0.0539 -0.207317,-0.11067 -0.438701,-0.16857 -0.673706,-0.16859 -0.790255,0 -1.430883,0.64063 -1.430886,1.43088 3e-6,0.79026 0.640631,1.43088 1.430886,1.43088 0.790255,0 1.430883,-0.64062 1.430885,-1.43088 6e-6,-0.0888 -0.0082,-0.17732 -0.02465,-0.26455 0.07553,-0.0645 0.167478,-0.11681 0.242535,-0.17155 0.190707,-0.1391 0.367361,-0.29357 0.546524,-0.44695 1.913465,-1.63799 3.478018,-3.62212 4.576928,-5.89279 0.255209,-0.52734 0.486083,-1.08491 0.675677,-1.63923 0.105405,-0.30818 0.165692,-0.67435 0.304975,-0.96916 0.674566,-0.12887 1.162442,-0.71882 1.16239,-1.40558 -2e-6,-0.79026 -0.640631,-1.43088 -1.430886,-1.43088 z m -5.313075,2.85158 c -0.792714,0 -1.430886,0.63817 -1.430886,1.43088 0,0.15558 0.0245,0.30529 0.07,0.4453 l -2.562383,2.56272 -0.379247,0.37924 -0.478496,0.4785 h -2.374732 c -4.98e-4,0 -0.0011,0 -0.0016,0 -0.0238,0 -0.04762,0.001 -0.07131,0.004 -0.02337,0.002 -0.04661,0.006 -0.06967,0.0112 -0.02238,0.005 -0.04448,0.0106 -0.06638,0.0178 l -3.29e-4,3.3e-4 h -3.29e-4 -3.28e-4 c -0.02167,0.007 -0.04307,0.0153 -0.06408,0.0247 -0.02536,0.0113 -0.05016,0.0249 -0.07427,0.0394 -0.0061,0.004 -0.01212,0.007 -0.01807,0.0112 -0.02283,0.0148 -0.04506,0.0308 -0.06639,0.0486 -0.0037,0.003 -0.0069,0.007 -0.01052,0.01 -0.01152,0.0101 -0.0232,0.0199 -0.03418,0.0309 l -3.504584,3.50491 -0.926428,0.92676 -1.535393,1.53572 a 1.4302262,1.4302284 0 0 0 -3.29e-4,0 1.4302262,1.4302284 0 0 0 -0.409153,-0.0598 1.4302262,1.4302284 0 0 0 -1.430228,1.43023 1.4302262,1.4302284 0 0 0 1.430228,1.43023 1.4302262,1.4302284 0 0 0 1.430229,-1.43023 1.4302262,1.4302284 0 0 0 -0.06408,-0.42329 1.4302262,1.4302284 0 0 0 0,-3.3e-4 l 0.231689,-0.23169 1.275769,-1.2761 1.765109,-1.76477 1.498585,-1.49859 c 0.0069,-0.007 0.01348,-0.0139 0.02005,-0.021 l 0.973752,-0.97375 h 2.318863 c 0.01255,0 0.02508,-10e-5 0.03747,-9.9e-4 0.178893,0.006 0.359441,-0.0604 0.49657,-0.19751 l 0.960278,-0.96027 0.386477,-0.38648 2.279426,-2.2791 c 0.0032,-0.003 0.0064,-0.007 0.0095,-0.01 0.123702,0.0347 0.254368,0.0532 0.389434,0.0532 0.792715,0 1.430886,-0.63817 1.430886,-1.43088 0,-0.79272 -0.638171,-1.43089 -1.430886,-1.43089 z m 7.3687,5.38735 c -0.929287,0 -1.682622,0.75332 -1.682622,1.68261 -3.8e-5,0.20592 0.03773,0.41011 0.111408,0.60239 l -0.02103,0.021 -0.753893,0.7539 -3.6482,3.6482 c -0.263658,0.26366 -0.263659,0.6884 0,0.95206 0.263658,0.26366 0.688075,0.26366 0.951733,0 l 3.648199,-3.6482 0.754223,-0.75422 c 0.0045,-0.005 0.0088,-0.009 0.01315,-0.0135 h 3.28e-4 c 0.199274,0.0799 0.412005,0.12098 0.626711,0.12094 0.929286,0 1.682621,-0.75334 1.682621,-1.68263 0,-0.92929 -0.753335,-1.68261 -1.682621,-1.68261 z m 0,1.00956 c 0.371714,0 0.673049,0.30134 0.673049,0.67305 0,0.37172 -0.301335,0.67305 -0.673049,0.67305 -0.371714,0 -0.673049,-0.30133 -0.673048,-0.67305 0,-0.37171 0.301334,-0.67305 0.673048,-0.67305 z m 21.489248,2.96694 c -0.06624,0.002 -0.133373,0.014 -0.199483,0.0368 l -16.94354,5.83429 c -0.352554,0.1214 -0.538765,0.50289 -0.41737,0.85545 0.121395,0.35255 0.503218,0.53876 0.855772,0.41736 l 16.94354,-5.83429 c 0.352548,-0.1214 0.538434,-0.50288 0.41704,-0.85544 -0.09864,-0.28645 -0.368935,-0.46315 -0.655959,-0.45417 z m -21.979575,7.56785 c -0.06623,0.002 -0.133378,0.014 -0.199482,0.0368 l -3.500314,1.20512 c -0.352554,0.12139 -0.538434,0.50289 -0.41704,0.85543 0.121395,0.35256 0.502888,0.53877 0.855442,0.41737 l 3.499985,-1.2051 c 0.352554,-0.1214 0.538764,-0.50289 0.417369,-0.85545 -0.09863,-0.28645 -0.368934,-0.46315 -0.65596,-0.45417 z m -8.39339,2.89102 c -0.06623,0.002 -0.13338,0.014 -0.199482,0.0368 l -2.625153,0.90376 c -0.352555,0.12139 -0.538764,0.50321 -0.417369,0.85577 0.121394,0.35255 0.503217,0.53844 0.855771,0.41704 l 2.624824,-0.90375 c 0.352554,-0.1214 0.538763,-0.50289 0.417369,-0.85545 -0.09863,-0.28646 -0.368934,-0.46315 -0.65596,-0.45418 z m -19.016912,6.54777 c -0.06623,0.002 -0.133378,0.014 -0.199482,0.0368 l -11.454643,3.94397 c -0.352553,0.12139 -0.538764,0.50322 -0.417369,0.85577 0.121395,0.35256 0.502888,0.53843 0.855442,0.41705 l 11.454973,-3.94399 c 0.352555,-0.12139 0.538436,-0.50321 0.417041,-0.85576 -0.09863,-0.28645 -0.368933,-0.46282 -0.65596,-0.45385 z" />
  <path
     id="path58"
     style="baseline-shift:baseline;display:inline;overflow:visible;vector-effect:none;stroke-width:0.635952;enable-background:accumulate;stop-color:#000000;fill:#00ffff"
     d="m 60.06995,17.737071 c -1.615131,0.0707 -3.23649,0.47253 -4.675848,1.21629 -2.020586,1.04407 -3.725556,2.87044 -4.649557,4.94467 -0.604918,1.35793 -0.76495,2.83428 -1.272812,4.21937 -0.251733,0.68655 -0.602629,1.30472 -1.050981,1.8821 -0.504259,0.64937 -1.145459,1.18411 -1.771026,1.71253 -0.767326,0.64817 -1.545445,1.2846 -2.307688,1.93863 -0.884273,0.75872 -1.765864,1.52443 -2.580129,2.35896 -0.902003,0.92442 -1.729912,1.91836 -2.513418,2.94458 -1.037878,1.3594 -1.9717,2.81718 -2.804916,4.31041 -0.250139,0.44827 -0.487128,0.90699 -0.716757,1.36614 -0.08648,0.17292 -0.160333,0.36333 -0.252394,0.537 -0.787303,0.004 -1.423335,0.64356 -1.423327,1.43088 2e-6,0.79025 0.64063,1.43088 1.430885,1.43089 0.790255,-1e-5 1.430884,-0.64064 1.430886,-1.43089 -3.3e-5,-0.32755 -0.112441,-0.64516 -0.318449,-0.89981 0.08554,-0.27362 0.267308,-0.54489 0.392393,-0.79497 0.36344,-0.72662 0.773773,-1.42876 1.191637,-2.12497 1.171112,-1.95121 2.514354,-3.79802 4.065898,-5.46392 0.578837,-0.62149 1.173157,-1.26437 1.854827,-1.77661 0.7963,-0.59837 1.680433,-1.07746 2.641585,-1.35267 1.810603,-0.51843 3.899995,-0.35198 5.526032,0.62342 0.840397,0.50413 1.567283,1.16701 2.105578,1.98991 0.241838,0.36969 0.491207,0.8704 1.021733,0.71937 0.465865,-0.13261 0.480781,-0.67077 0.261923,-1.02304 -0.486609,-0.78322 -1.067441,-1.47433 -1.779898,-2.06154 -1.223103,-1.0081 -2.823596,-1.62182 -4.402751,-1.72995 -0.409829,-0.0281 -0.866212,-0.0365 -1.275112,0.002 -0.304304,0.0289 -0.607281,0.0922 -0.910981,0.11634 0.335202,-0.41469 0.831865,-0.72038 1.214314,-1.09337 0.768617,-0.74961 1.376133,-1.5515 1.84431,-2.51901 0.628198,-1.29819 0.760435,-2.78164 1.254408,-4.12834 0.837343,-2.28281 2.575931,-4.19255 4.765237,-5.25062 2.652628,-1.28201 6.095095,-1.28496 8.592545,0.34801 0.883236,0.57752 1.739682,1.36271 2.104263,2.38328 0.0678,0.18979 0.172149,0.497 0.08972,0.69507 -0.08716,0.20945 -0.471601,0.34435 -0.645443,0.48277 -0.378962,0.30175 -0.684448,0.68516 -0.884363,1.12886 -0.339448,0.7534 -0.40864,1.55786 -0.487039,2.36784 -0.09493,0.98074 -0.164825,1.9638 -0.262911,2.94458 -0.08167,0.8166 -0.199717,1.63884 -0.121595,2.45887 0.09127,0.95808 0.351096,1.88706 0.559011,2.82299 0.233158,1.04955 0.421915,2.11634 0.523848,3.18712 0.314047,3.29893 -0.545588,6.60809 -2.110836,9.50156 -0.510791,0.94423 -1.09269,1.89027 -1.800931,2.70139 0.141596,-0.50375 0.174618,-1.11934 0.113051,-1.63924 -0.02509,-0.21191 -0.04917,-0.42828 -0.09333,-0.63722 -0.02146,-0.10151 -0.0734,-0.21103 -0.04502,-0.31648 0.03201,-0.11883 0.138958,-0.22018 0.205398,-0.32108 0.130836,-0.19869 0.256947,-0.40255 0.378591,-0.607 0.33361,-0.5607 0.613908,-1.17498 0.827836,-1.79107 0.129675,-0.37344 0.252329,-0.76053 0.305303,-1.15351 0.05961,-0.44218 0.03911,-0.89007 0.03911,-1.33558 v -2.03393 -1.82131 c 0,-0.28851 0.04925,-0.6283 -0.01183,-0.91066 -0.0944,-0.43645 -0.618989,-0.63444 -0.990183,-0.41047 -0.292399,0.17643 -0.333876,0.49347 -0.333895,0.80516 -2.2e-5,0.36964 0.0079,0.73892 0.0099,1.1085 0.0052,0.99684 0.01048,1.99533 -0.0049,2.99191 -0.01207,0.79798 0.02472,1.54062 -0.260937,2.30441 -0.24196,0.64694 -0.566329,1.26549 -0.930372,1.85186 -0.214473,0.34545 -0.537376,0.68341 -0.619809,1.09272 -0.04108,0.204 0.06388,0.43949 0.109436,0.63756 0.07772,0.33797 0.121592,0.68649 0.145258,1.03192 0.07371,1.07597 -0.253048,2.10298 -0.765725,3.03562 -0.602664,1.09633 -1.606635,1.90677 -2.571256,2.67149 -1.030313,0.81678 -2.129864,1.57857 -3.27914,2.21994 -1.150321,0.64195 -2.348426,1.18986 -3.552567,1.72173 -0.749561,0.33108 -1.510657,0.63904 -2.277126,0.92807 -0.406186,0.15317 -0.847129,0.36872 -1.275113,0.44235 0.191321,-0.52543 0.554395,-1.03543 0.836382,-1.51798 0.387496,-0.6631 0.731733,-1.35786 1.09732,-2.0336 0.211477,-0.39089 0.636715,-1.05967 0.100233,-1.39671 -0.07307,-0.0459 -0.157079,-0.0745 -0.242533,-0.0851 -0.587554,-0.0732 -0.754265,0.55793 -0.984597,0.96554 -0.755998,1.33786 -1.467083,2.70072 -2.22553,4.0373 -1.332274,2.3478 -2.63255,4.71009 -4.044865,7.01213 -0.833541,1.35864 -1.678778,2.70827 -2.646843,3.97683 -1.257454,1.64781 -2.816078,3.43462 -4.854626,4.09778 2.511969,-3.67638 4.726535,-7.54211 7.025931,-11.35277 0.40615,-0.67309 0.81332,-1.34852 1.19821,-2.03393 0.152859,-0.27221 0.384533,-0.54665 0.470609,-0.84985 0.156291,-0.55052 -0.375316,-1.03285 -0.891264,-0.74634 -0.161753,0.0898 -0.254261,0.25851 -0.346055,0.41244 -0.14969,0.25102 -0.294235,0.50549 -0.439716,0.75883 -0.52819,0.91975 -1.091401,1.82236 -1.63727,2.73195 -1.328255,2.21329 -2.611253,4.45313 -3.970593,6.64767 -0.828981,1.33833 -1.652625,2.68474 -2.597547,3.94628 -0.732655,0.97815 -1.550803,1.96428 -2.577172,2.64618 -0.436148,0.28977 -0.965648,0.57381 -1.487739,0.66254 0.2196,-0.37617 0.408852,-0.7706 0.616523,-1.15352 0.542065,-0.99956 1.109081,-1.98803 1.673748,-2.97482 1.724345,-3.01345 3.485152,-6.00465 5.213826,-9.0155 0.847839,-1.47671 1.721356,-2.93894 2.592947,-4.40144 0.239296,-0.40155 0.465136,-0.81145 0.702627,-1.21432 0.120352,-0.20415 0.22264,-0.45786 0.383848,-0.6323 0.187058,-0.20241 0.462772,-0.33633 0.688165,-0.49164 0.375772,-0.25893 0.736335,-0.53458 1.093046,-0.81895 0.179301,-0.14294 0.353735,-0.29345 0.51629,-0.45517 0.08928,-0.0888 0.180364,-0.19874 0.284929,-0.28 0.162478,0.0619 0.334871,0.0936 0.508729,0.0937 0.790256,0 1.430883,-0.64063 1.430886,-1.43088 -2e-6,-0.79026 -0.640629,-1.43089 -1.430886,-1.43089 -0.790255,0 -1.430883,0.64063 -1.430885,1.43089 -1.9e-5,0.1622 0.02754,0.32323 0.0815,0.47619 -0.104139,0.13514 -0.264135,0.2439 -0.385491,0.35394 -0.372782,0.33804 -0.766984,0.66633 -1.18408,0.94878 -2.339385,1.58418 -4.988547,2.66176 -7.621093,3.65346 -0.719935,0.2712 -1.445572,0.53751 -2.17985,0.76901 -0.0073,0.002 -0.01468,0.005 -0.02202,0.007 -0.02507,0.008 -0.05017,0.0159 -0.07526,0.0237 -0.007,0.002 -0.01403,0.004 -0.02103,0.007 -0.348069,0.10783 -0.700225,0.20374 -1.055255,0.2892 a 0.01682621,0.01682621 0 0 1 -0.0161,-0.0168 0.01682621,0.01682621 0 0 1 9.86e-4,-0.006 l 2.838438,-6.08702 7.815318,-7.81531 c 0.0417,-0.0417 0.07665,-0.0872 0.105164,-0.13573 l 1.01286,-1.01286 0.0043,-0.004 c 0.130383,-0.13039 0.194458,-0.30111 0.192581,-0.47127 -3e-6,-3.3e-4 4e-6,-5.1e-4 0,-9.9e-4 v -2.75266 l 3.209142,-3.2088 c 0.13198,0.0399 0.272013,0.0615 0.417368,0.0615 0.792714,-10e-6 1.430885,-0.63818 1.430885,-1.43089 0,-0.79272 -0.638171,-1.43089 -1.430885,-1.43089 -0.792713,0 -1.430886,0.63817 -1.430885,1.43089 -10e-7,0.14535 0.02152,0.28539 0.06145,0.41737 l -3.405337,3.40566 c -0.04757,0.0476 -0.08593,0.10061 -0.116338,0.15676 -0.02105,0.0389 -0.03811,0.0791 -0.05094,0.12061 -0.01327,0.0429 -0.02249,0.0868 -0.02695,0.13113 -0.0023,0.0229 -0.0037,0.0457 -0.0036,0.0687 -10e-7,6.1e-4 1e-6,0.001 0,0.002 v 2.79834 l -0.821264,0.82094 -3.28e-4,3.2e-4 c -0.03498,0.0237 -0.0682,0.0511 -0.09925,0.0822 l -7.852453,7.85279 c -0.01669,0.0167 -0.0324,0.034 -0.047,0.0519 -0.05608,0.0551 -0.103395,0.12117 -0.138685,0.19685 l -0.0089,0.0191 c -2.92e-4,5.8e-4 -6.69e-4,10e-4 -9.87e-4,0.002 -0.0026,0.005 -0.005,0.0107 -0.0076,0.0161 l -1.822291,3.90848 -1.623468,3.48125 c -0.0024,0.005 -0.0046,0.0103 -0.0069,0.0154 l -0.01019,0.0217 c -0.157582,0.33794 -0.01259,0.73664 0.325351,0.89422 0.08983,0.0419 0.18393,0.0622 0.276712,0.0634 0.09754,0.004 0.199655,-0.01 0.302017,-0.0345 0.629669,-0.15062 1.277026,-0.34949 1.882433,-0.57873 0.810152,-0.30676 1.645966,-0.54731 2.45952,-0.84558 0.992084,-0.36372 1.970064,-0.77598 2.945245,-1.18177 0.478058,-0.19893 0.95335,-0.40259 1.426942,-0.61193 0.303324,-0.13408 0.640238,-0.25819 0.910981,-0.45089 -0.06137,0.20861 -0.20048,0.38945 -0.308261,0.57676 -0.211014,0.36671 -0.429304,0.72883 -0.645114,1.09272 -0.63391,1.06889 -1.248555,2.14883 -1.882433,3.21768 -1.371775,2.31308 -2.693387,4.65576 -4.04355,6.98157 -0.421025,0.72526 -0.814484,1.46656 -1.245863,2.18577 -0.706409,1.17772 -1.304489,2.42014 -1.985626,3.61237 -0.234086,0.40974 -0.640501,1.06213 -0.40751,1.54789 0.127886,0.26664 0.462827,0.39137 0.741406,0.39468 0.588979,0.007 1.250079,-0.15002 1.7914,-0.37694 0.750703,-0.31469 1.430065,-0.78419 2.034264,-1.32802 0.204045,-0.18366 0.402968,-0.38274 0.592532,-0.58136 0.106427,-0.11151 0.215135,-0.26954 0.351642,-0.34474 0.130338,-0.0718 0.336572,-0.0505 0.483096,-0.0707 0.276595,-0.038 0.552789,-0.10015 0.819621,-0.18273 0.908717,-0.28121 1.718498,-0.74172 2.489754,-1.29121 1.269601,-0.90455 2.293653,-2.09636 3.23839,-3.32219 1.402343,-1.81958 2.619735,-3.80966 3.766838,-5.79781 0.601274,-1.04214 1.217667,-2.07611 1.804218,-3.12666 0.163613,-0.29305 0.335208,-0.58381 0.492625,-0.88009 0.07275,-0.13691 0.121311,-0.30831 0.263568,-0.39042 0.160326,-0.0925 0.39649,-0.10737 0.575443,-0.15216 0.169617,-0.0424 0.341146,-0.10973 0.516289,-0.12258 0.421039,-0.0309 0.841453,0.0656 1.244877,0.17484 0.567712,0.15372 1.119263,0.3589 1.63957,0.63524 0.527224,0.28003 1.108151,0.7152 1.121639,1.37272 0.01021,0.49735 -0.405012,0.81328 -0.787742,1.04409 -0.283562,0.171 -0.589506,0.3443 -0.599435,0.71643 -0.0146,0.54738 0.581442,0.7137 0.994127,0.50807 0.336253,-0.16755 0.670898,-0.39801 0.938588,-0.66188 0.92421,-0.91099 0.858563,-2.39208 -0.03024,-3.30542 -0.603364,-0.62003 -1.480667,-1.00019 -2.274497,-1.30634 v -0.0306 c 1.199889,-0.40583 2.390221,-0.95981 3.522003,-1.52521 0.292759,-0.14625 0.598027,-0.28344 0.880419,-0.44826 0.197623,-0.11534 0.441645,-0.30471 0.668119,-0.35 0.129882,-0.026 0.298226,0.0206 0.424927,0.0509 0.285147,0.0683 0.569891,0.15177 0.850185,0.23793 0.915541,0.28144 1.867114,0.57299 2.702383,1.05066 0.293614,0.16791 0.614673,0.3316 0.840324,0.59056 0.433619,0.49764 0.274431,1.12806 -0.172534,1.54427 -0.183974,0.17132 -0.464592,0.28863 -0.611594,0.4913 -0.222509,0.30678 -0.08493,0.83587 0.307933,0.92611 0.440703,0.10122 0.747211,-0.17124 1.062813,-0.43151 0.828578,-0.68328 1.21733,-1.83522 0.717414,-2.83482 -0.241155,-0.48219 -0.662256,-0.82532 -1.112107,-1.10586 -0.700546,-0.43688 -1.475067,-0.73783 -2.246892,-1.02075 -0.389103,-0.14262 -0.779758,-0.32971 -1.184079,-0.42328 0.13096,-0.17737 0.334995,-0.28383 0.516288,-0.40488 0.277978,-0.18561 0.550909,-0.38232 0.819622,-0.58103 0.813423,-0.6015 1.588024,-1.255 2.337923,-1.93338 0.871954,-0.78878 1.660393,-1.67252 2.411867,-2.57519 1.29437,-1.5548 2.420548,-3.27638 3.239705,-5.13003 1.328532,-3.00629 1.758091,-6.34245 1.353656,-9.59226 -0.162358,-1.30461 -0.517873,-2.56649 -0.758495,-3.85524 -0.06789,-0.36359 -0.133043,-0.72541 -0.178778,-1.09272 -0.01404,-0.11278 -0.08962,-0.27694 -0.05915,-0.38778 0.02908,-0.10574 0.187932,-0.1164 0.276384,-0.13442 0.28956,-0.059 0.575787,-0.13224 0.850183,-0.24286 0.727133,-0.29313 1.392871,-0.81966 1.730603,-1.54197 0.213725,0.16728 0.310213,0.45316 0.408167,0.69803 0.221532,0.55377 0.32022,1.14931 0.624083,1.6698 0.181041,-0.061 0.322176,-0.20093 0.455491,-0.33422 0.267329,-0.26734 0.508769,-0.56578 0.718356,-0.88012 1.110925,-1.66618 1.017889,-3.92571 0.04535,-5.61575 -0.438232,-0.76221 -1.036239,-1.37638 -1.674733,-1.97051 -0.26335,-0.24505 -0.601746,-0.4463 -0.821592,-0.73384 -0.202666,-0.26507 -0.2061,-0.66081 -0.312205,-0.96883 -0.179759,-0.52183 -0.440897,-0.98789 -0.775584,-1.42662 -1.711136,-2.24306 -4.647897,-3.18422 -7.381516,-3.06453 z m 1.593232,4.86843 c -1.296153,-1.3e-4 -2.34692,1.05065 -2.346798,2.34679 5.7e-5,1.29603 1.050772,2.3466 2.346798,2.34647 1.295897,-5e-5 2.346411,-1.05057 2.346468,-2.34647 1.21e-4,-1.29601 -1.050443,-2.34674 -2.346468,-2.34679 z m 0,1.17323 c 0.648079,3e-5 1.173386,0.52548 1.173234,1.17356 -3.3e-5,0.64795 -0.525289,1.17321 -1.173234,1.17324 -0.648072,1.5e-4 -1.173531,-0.52516 -1.173563,-1.17324 -1.53e-4,-0.6482 0.525362,-1.17371 1.173563,-1.17356 z m -5.451431,0.187 c -0.193725,-0.002 -0.386731,0.0802 -0.521548,0.24088 l -1.189666,1.41774 c -0.120385,0.14348 -0.170783,0.32183 -0.155117,0.49395 -0.0018,0.0203 -0.0031,0.041 -0.003,0.0618 v 4.09022 c -1.48e-4,0.023 0.0014,0.046 0.0036,0.069 1.82e-4,0.002 6.57e-4,0.003 6.57e-4,0.005 0.01341,0.12911 0.06373,0.25579 0.153802,0.36314 l 4.169419,4.96933 v 8.8732 l -0.794973,0.94745 c -0.209716,0.24993 -0.177302,0.62009 0.07263,0.82981 l 0.128825,0.10812 c 0.249931,0.20972 0.620092,0.1773 0.829808,-0.0726 l 0.971452,-1.15778 c 0.09808,-0.11689 0.143338,-0.25987 0.138027,-0.40061 2.31e-4,-0.008 3.3e-4,-0.0156 3.29e-4,-0.0233 v -9.34282 c -1.9e-5,-10e-4 -2e-5,-0.002 0,-0.004 8.27e-4,-0.15378 -0.05103,-0.30886 -0.158075,-0.43643 l -4.169361,-4.96934 v -3.72543 l 1.032907,-1.23108 c 0.239674,-0.28563 0.202817,-0.70844 -0.08282,-0.94812 -0.124964,-0.10485 -0.276225,-0.15677 -0.426899,-0.15806 z m 11.509526,0.48144 c 0.215452,-0.0158 0.377558,0.10124 0.546523,0.21822 0.341206,0.23623 0.653857,0.51693 0.933659,0.82422 0.793845,0.87184 1.427921,1.92566 1.403937,3.14374 -0.01153,0.58562 -0.171914,1.14141 -0.333566,1.70005 h -0.0608 c -0.413898,-0.98868 -1.384848,-1.73357 -2.398722,-2.02079 -0.353255,-0.10008 -0.728014,-0.15552 -1.093047,-0.19028 -0.121636,-0.0116 -0.341355,0.0352 -0.424271,-0.0812 -0.05666,-0.0795 -0.01989,-0.20044 -0.0095,-0.28821 0.02737,-0.23182 0.03101,-0.46614 0.06113,-0.69803 0.09304,-0.7162 0.173019,-1.5073 0.635912,-2.09441 0.170577,-0.2164 0.447062,-0.49198 0.738745,-0.51334 z m -1.385205,4.84839 c 0.09011,-0.006 0.196411,0.0195 0.261924,0.0273 0.300267,0.0355 0.586033,0.0731 0.880418,0.1492 0.094,0.0243 0.279004,0.0527 0.329953,0.14789 0.07188,0.13423 -0.213984,0.40721 -0.29216,0.50084 -0.356308,0.42675 -0.926218,0.77766 -1.495297,0.78939 0.04854,-0.38395 0.06715,-0.76982 0.11305,-1.15352 0.01396,-0.1167 -0.01041,-0.31049 0.06967,-0.40685 0.0301,-0.0362 0.07838,-0.0508 0.132441,-0.0542 z m -15.890259,7.66874 c -1.32455,0 -2.412195,1.08732 -2.412195,2.41187 0,0.42124 0.110039,0.81875 0.302674,1.1647 l -4.869743,4.86974 c -0.263659,0.26365 -0.263659,0.68807 0,0.95173 0.263658,0.26366 0.688074,0.26366 0.951732,0 l 4.871716,-4.87172 h 3.29e-4 c 0.343832,0.18955 0.737891,0.29775 1.155487,0.29775 1.32455,0 2.412197,-1.08764 2.412197,-2.4122 0,-1.32455 -1.087647,-2.41187 -2.412197,-2.41187 z m 0.08413,1.38028 c 0.602095,0 1.06577,0.46335 1.06577,1.06544 0,0.6021 -0.463675,1.06578 -1.06577,1.06578 -0.602095,0 -1.06577,-0.46368 -1.06577,-1.06578 0,-0.60209 0.463676,-1.06544 1.06577,-1.06544 z m 5.143498,2.38953 c -0.790255,0 -1.430883,0.64062 -1.430886,1.43087 5.4e-5,0.42943 0.192966,0.83612 0.525491,1.10784 -0.0097,0.25188 -0.172,0.54888 -0.26028,0.78117 -0.214059,0.56327 -0.43766,1.12674 -0.700327,1.66947 -1.098983,2.27083 -2.781329,4.41889 -4.81979,5.91515 -0.04138,0.0304 -0.08304,0.0469 -0.124882,0.0539 -0.207317,-0.11067 -0.438701,-0.16857 -0.673706,-0.16859 -0.790255,0 -1.430883,0.64063 -1.430886,1.43088 3e-6,0.79026 0.640631,1.43088 1.430886,1.43088 0.790255,0 1.430883,-0.64062 1.430885,-1.43088 6e-6,-0.0888 -0.0082,-0.17732 -0.02465,-0.26455 0.07553,-0.0645 0.167478,-0.11681 0.242535,-0.17155 0.190707,-0.1391 0.367361,-0.29357 0.546524,-0.44695 1.913465,-1.63799 3.478018,-3.62212 4.576928,-5.89279 0.255209,-0.52734 0.486083,-1.08491 0.675677,-1.63923 0.105405,-0.30818 0.165692,-0.67435 0.304975,-0.96916 0.674566,-0.12887 1.162442,-0.71882 1.16239,-1.40558 -2e-6,-0.79026 -0.640631,-1.43088 -1.430886,-1.43088 z m -5.313075,2.85158 c -0.792714,0 -1.430886,0.63817 -1.430886,1.43088 0,0.15558 0.0245,0.30529 0.07,0.4453 l -2.562383,2.56272 -0.379247,0.37924 -0.478496,0.4785 h -2.374732 c -4.98e-4,0 -0.0011,0 -0.0016,0 -0.0238,0 -0.04762,10e-4 -0.07131,0.004 -0.02337,0.002 -0.04661,0.006 -0.06967,0.0112 -0.02238,0.005 -0.04448,0.0106 -0.06638,0.0178 l -3.29e-4,3.3e-4 h -3.29e-4 -3.28e-4 c -0.02167,0.007 -0.04307,0.0153 -0.06408,0.0247 -0.02536,0.0113 -0.05016,0.0249 -0.07427,0.0394 -0.0061,0.004 -0.01212,0.007 -0.01807,0.0112 -0.02283,0.0148 -0.04506,0.0308 -0.06639,0.0486 -0.0037,0.003 -0.0069,0.007 -0.01052,0.01 -0.01152,0.0101 -0.0232,0.0199 -0.03418,0.0309 l -3.504584,3.50491 -0.926428,0.92676 -1.535393,1.53572 a 1.4302262,1.4302284 0 0 0 -3.29e-4,0 1.4302262,1.4302284 0 0 0 -0.409153,-0.0598 1.4302262,1.4302284 0 0 0 -1.430228,1.43023 1.4302262,1.4302284 0 0 0 1.430228,1.43023 1.4302262,1.4302284 0 0 0 1.430229,-1.43023 1.4302262,1.4302284 0 0 0 -0.06408,-0.42329 1.4302262,1.4302284 0 0 0 0,-3.3e-4 l 0.231689,-0.23169 1.275769,-1.2761 1.765109,-1.76477 1.498585,-1.49859 c 0.0069,-0.007 0.01348,-0.0139 0.02005,-0.021 l 0.973752,-0.97375 h 2.318863 c 0.01255,0 0.02508,-10e-5 0.03747,-9.9e-4 0.178893,0.006 0.359441,-0.0604 0.49657,-0.19751 l 0.960278,-0.96027 0.386477,-0.38648 2.279426,-2.2791 c 0.0032,-0.003 0.0064,-0.007 0.0095,-0.01 0.123702,0.0347 0.254368,0.0532 0.389434,0.0532 0.792715,0 1.430886,-0.63817 1.430886,-1.43088 0,-0.79272 -0.638171,-1.43089 -1.430886,-1.43089 z m 7.3687,5.38735 c -0.929287,0 -1.682622,0.75332 -1.682622,1.68261 -3.8e-5,0.20592 0.03773,0.41011 0.111408,0.60239 l -0.02103,0.021 -0.753893,0.7539 -3.6482,3.6482 c -0.263658,0.26366 -0.263659,0.6884 0,0.95206 0.263658,0.26366 0.688075,0.26366 0.951733,0 l 3.648199,-3.6482 0.754223,-0.75422 c 0.0045,-0.005 0.0088,-0.009 0.01315,-0.0135 h 3.28e-4 c 0.199274,0.0799 0.412005,0.12098 0.626711,0.12094 0.929286,0 1.682621,-0.75334 1.682621,-1.68263 0,-0.92929 -0.753335,-1.68261 -1.682621,-1.68261 z m 0,1.00956 c 0.371714,0 0.673049,0.30134 0.673049,0.67305 0,0.37172 -0.301335,0.67305 -0.673049,0.67305 -0.371714,0 -0.673049,-0.30133 -0.673048,-0.67305 0,-0.37171 0.301334,-0.67305 0.673048,-0.67305 z m 21.489248,2.96694 c -0.06624,0.002 -0.133373,0.014 -0.199483,0.0368 l -16.94354,5.83429 c -0.352554,0.1214 -0.538765,0.50289 -0.41737,0.85545 0.121395,0.35255 0.503218,0.53876 0.855772,0.41736 l 16.94354,-5.83429 c 0.352548,-0.1214 0.538434,-0.50288 0.41704,-0.85544 -0.09864,-0.28645 -0.368935,-0.46315 -0.655959,-0.45417 z m -21.979575,7.56785 c -0.06623,0.002 -0.133378,0.014 -0.199482,0.0368 l -3.500314,1.20512 c -0.352554,0.12139 -0.538434,0.50289 -0.41704,0.85543 0.121395,0.35256 0.502888,0.53877 0.855442,0.41737 l 3.499985,-1.2051 c 0.352554,-0.1214 0.538764,-0.50289 0.417369,-0.85545 -0.09863,-0.28645 -0.368934,-0.46315 -0.65596,-0.45417 z m -8.39339,2.89102 c -0.06623,0.002 -0.13338,0.014 -0.199482,0.0368 l -2.625153,0.90376 c -0.352555,0.12139 -0.538764,0.50321 -0.417369,0.85577 0.121394,0.35255 0.503217,0.53844 0.855771,0.41704 l 2.624824,-0.90375 c 0.352554,-0.1214 0.538763,-0.50289 0.417369,-0.85545 -0.09863,-0.28646 -0.368934,-0.46315 -0.65596,-0.45418 z m -19.016912,6.54777 c -0.06623,0.002 -0.133378,0.014 -0.199482,0.0368 l -11.454643,3.94397 c -0.352553,0.12139 -0.538764,0.50322 -0.417369,0.85577 0.121395,0.35256 0.502888,0.53843 0.855442,0.41705 l 11.454973,-3.94399 c 0.352555,-0.12139 0.538436,-0.50321 0.417041,-0.85576 -0.09863,-0.28645 -0.368933,-0.46282 -0.65596,-0.45385 z" />
</svg>
