<?xml version="1.0" encoding="UTF-8" standalone="no"?>
<!-- Created with Inkscape (http://www.inkscape.org/) -->

<svg
   width="1920"
   height="1080"
   viewBox="0 0 508 285.75001"
   version="1.1"
   id="svg1"
   inkscape:version="1.4.2 (f4327f4, 2025-05-13)"
   sodipodi:docname="wallpaper_1920x1080.svg"
   inkscape:export-filename="wallpaper2_1920x1080.png"
   inkscape:export-xdpi="96"
   inkscape:export-ydpi="96"
   xmlns:inkscape="http://www.inkscape.org/namespaces/inkscape"
   xmlns:sodipodi="http://sodipodi.sourceforge.net/DTD/sodipodi-0.dtd"
   xmlns:xlink="http://www.w3.org/1999/xlink"
   xmlns="http://www.w3.org/2000/svg"
   xmlns:svg="http://www.w3.org/2000/svg">
  <sodipodi:namedview
     id="namedview1"
     pagecolor="#ffffff"
     bordercolor="#000000"
     borderopacity="0.25"
     inkscape:showpageshadow="2"
     inkscape:pageopacity="0.0"
     inkscape:pagecheckerboard="0"
     inkscape:deskcolor="#d1d1d1"
     inkscape:document-units="mm"
     inkscape:zoom="0.49584334"
     inkscape:cx="1008.383"
     inkscape:cy="579.82023"
     inkscape:window-width="1440"
     inkscape:window-height="829"
     inkscape:window-x="-8"
     inkscape:window-y="-8"
     inkscape:window-maximized="1"
     inkscape:current-layer="svg1" />
  <defs
     id="defs1">
    <linearGradient
       id="linearGradient5">
      <stop
         style="stop-color:#00ffff;stop-opacity:1;"
         offset="0.22835918"
         id="stop4" />
      <stop
         style="stop-color:#0000ff;stop-opacity:1;"
         offset="0.70677894"
         id="stop5" />
    </linearGradient>
    <linearGradient
       xlink:href="#linearGradient12685"
       id="linearGradient12687"
       x1="107.03213"
       y1="61.031052"
       x2="103.83016"
       y2="219.51115"
       gradientUnits="userSpaceOnUse"
       gradientTransform="matrix(1.0922843,0,0,1.0922843,-38.90579,-65.829382)" />
    <linearGradient
       id="linearGradient12685">
      <stop
         style="stop-color:#00ffff;stop-opacity:1;"
         offset="0.22835918"
         id="stop12681" />
      <stop
         style="stop-color:#0000ff;stop-opacity:1;"
         offset="0.70677894"
         id="stop12683" />
    </linearGradient>
    <linearGradient
       xlink:href="#linearGradient12685"
       id="linearGradient12687-3"
       x1="107.03213"
       y1="61.031052"
       x2="103.83016"
       y2="219.51115"
       gradientUnits="userSpaceOnUse"
       gradientTransform="matrix(0.94664586,0,0,0.94664586,151.48988,10.536319)" />
    <linearGradient
       xlink:href="#linearGradient12685"
       id="linearGradient12687-3-5"
       x1="107.03213"
       y1="61.031052"
       x2="103.83016"
       y2="219.51115"
       gradientUnits="userSpaceOnUse"
       gradientTransform="matrix(0.94664588,0,0,0.94664588,151.48988,10.536319)" />
    <linearGradient
       xlink:href="#linearGradient12685"
       id="linearGradient12687-3-55"
       x1="107.03213"
       y1="61.031052"
       x2="103.83016"
       y2="219.51115"
       gradientUnits="userSpaceOnUse"
       gradientTransform="matrix(0.94664588,0,0,0.94664588,151.48988,10.53632)" />
    <linearGradient
       xlink:href="#linearGradient12685"
       id="linearGradient12687-3-2"
       x1="107.03213"
       y1="61.031052"
       x2="103.83016"
       y2="219.51115"
       gradientUnits="userSpaceOnUse"
       gradientTransform="matrix(0.94664588,0,0,0.94664588,151.48988,10.536323)" />
    <linearGradient
       xlink:href="#linearGradient5"
       id="linearGradient12687-3-22"
       x1="107.03213"
       y1="61.031052"
       x2="103.83016"
       y2="219.51115"
       gradientUnits="userSpaceOnUse"
       gradientTransform="matrix(0.94664588,0,0,0.94664588,151.48989,10.53632)" />
    <filter
       inkscape:collect="always"
       style="color-interpolation-filters:sRGB"
       id="filter4-7"
       x="-0.41992877"
       y="-0.44478578"
       width="1.8398575"
       height="1.8895716">
      <feGaussianBlur
         inkscape:collect="always"
         stdDeviation="39.227638"
         id="feGaussianBlur4-6" />
    </filter>
    <filter
       inkscape:collect="always"
       style="color-interpolation-filters:sRGB"
       id="filter1-1"
       x="-0.047994413"
       y="-0.048005591"
       width="1.0959888"
       height="1.0960112">
      <feGaussianBlur
         inkscape:collect="always"
         stdDeviation="1.2436864"
         id="feGaussianBlur1-8" />
    </filter>
  </defs>
  <rect
     style="fill:#030f1b;fill-opacity:1;stroke-width:0.85909"
     id="rect1"
     width="508"
     height="285.75"
     x="0"
     y="0"
     ry="0" />
  <ellipse
     style="opacity:0.1;fill:#00ffff;fill-opacity:1;stroke-width:0.897839;stroke-dasharray:none;filter:url(#filter4-7)"
     id="path4-2"
     cx="254"
     cy="142.875"
     rx="112.09798"
     ry="105.83334"
     transform="matrix(0.47941691,0,0,0.47941691,132.22811,74.378309)" />
  <path
     id="path58-7"
     style="baseline-shift:baseline;display:inline;overflow:visible;vector-effect:none;fill:#00ffff;stroke-width:0.635952;filter:url(#filter1-1);enable-background:accumulate;stop-color:#000000"
     d="m 290.35591,279.55947 c -1.61513,0.0707 -3.23649,0.47253 -4.67585,1.21629 -2.02058,1.04407 -3.72555,2.87044 -4.64956,4.94467 -0.60491,1.35793 -0.76495,2.83428 -1.27281,4.21937 -0.25173,0.68655 -0.60263,1.30472 -1.05098,1.8821 -0.50426,0.64937 -1.14546,1.18411 -1.77102,1.71253 -0.76733,0.64817 -1.54545,1.2846 -2.30769,1.93863 -0.88428,0.75872 -1.76587,1.52443 -2.58013,2.35896 -0.902,0.92442 -1.72991,1.91836 -2.51342,2.94458 -1.03788,1.3594 -1.9717,2.81718 -2.80492,4.31041 -0.25013,0.44827 -0.48712,0.90699 -0.71675,1.36614 -0.0865,0.17292 -0.16034,0.36333 -0.2524,0.537 -0.7873,0.004 -1.42333,0.64356 -1.42332,1.43088 0,0.79025 0.64063,1.43088 1.43088,1.43089 0.79026,-1e-5 1.43089,-0.64064 1.43089,-1.43089 -4e-5,-0.32755 -0.11244,-0.64516 -0.31845,-0.89981 0.0855,-0.27362 0.26731,-0.54489 0.39239,-0.79497 0.36344,-0.72662 0.77377,-1.42876 1.19164,-2.12497 1.17111,-1.95121 2.51435,-3.79802 4.0659,-5.46392 0.57883,-0.62149 1.17315,-1.26437 1.85482,-1.77661 0.7963,-0.59837 1.68044,-1.07746 2.64159,-1.35267 1.8106,-0.51843 3.89999,-0.35198 5.52603,0.62342 0.8404,0.50413 1.56728,1.16701 2.10558,1.98991 0.24184,0.36969 0.49121,0.8704 1.02173,0.71937 0.46587,-0.13261 0.48078,-0.67077 0.26192,-1.02304 -0.4866,-0.78322 -1.06744,-1.47433 -1.77989,-2.06154 -1.22311,-1.0081 -2.8236,-1.62182 -4.40275,-1.72995 -0.40983,-0.0281 -0.86622,-0.0365 -1.27512,0.002 -0.3043,0.0289 -0.60728,0.0922 -0.91098,0.11634 0.3352,-0.41469 0.83187,-0.72038 1.21432,-1.09337 0.76861,-0.74961 1.37613,-1.5515 1.84431,-2.51901 0.62819,-1.29819 0.76043,-2.78164 1.2544,-4.12834 0.83735,-2.28281 2.57594,-4.19255 4.76524,-5.25062 2.65263,-1.28201 6.0951,-1.28496 8.59255,0.34801 0.88323,0.57752 1.73968,1.36271 2.10426,2.38328 0.0678,0.18979 0.17215,0.497 0.0897,0.69507 -0.0872,0.20945 -0.4716,0.34435 -0.64544,0.48277 -0.37897,0.30175 -0.68445,0.68516 -0.88437,1.12886 -0.33944,0.7534 -0.40864,1.55786 -0.48704,2.36784 -0.0949,0.98074 -0.16482,1.9638 -0.26291,2.94458 -0.0817,0.8166 -0.19971,1.63884 -0.12159,2.45887 0.0913,0.95808 0.35109,1.88706 0.55901,2.82299 0.23316,1.04955 0.42191,2.11634 0.52385,3.18712 0.31404,3.29893 -0.54559,6.60809 -2.11084,9.50156 -0.51079,0.94423 -1.09269,1.89027 -1.80093,2.70139 0.1416,-0.50375 0.17462,-1.11934 0.11305,-1.63924 -0.0251,-0.21191 -0.0492,-0.42828 -0.0933,-0.63722 -0.0215,-0.10151 -0.0734,-0.21103 -0.045,-0.31648 0.032,-0.11883 0.13896,-0.22018 0.2054,-0.32108 0.13084,-0.19869 0.25695,-0.40255 0.37859,-0.607 0.33361,-0.5607 0.61391,-1.17498 0.82784,-1.79107 0.12967,-0.37344 0.25233,-0.76053 0.3053,-1.15351 0.0596,-0.44218 0.0391,-0.89007 0.0391,-1.33558 v -2.03393 -1.82131 c 0,-0.28851 0.0493,-0.6283 -0.0118,-0.91066 -0.0944,-0.43645 -0.61899,-0.63444 -0.99018,-0.41047 -0.2924,0.17643 -0.33388,0.49347 -0.3339,0.80516 -2e-5,0.36964 0.008,0.73892 0.01,1.1085 0.005,0.99684 0.0105,1.99533 -0.005,2.99191 -0.0121,0.79798 0.0247,1.54062 -0.26094,2.30441 -0.24196,0.64694 -0.56632,1.26549 -0.93037,1.85186 -0.21447,0.34545 -0.53737,0.68341 -0.61981,1.09272 -0.0411,0.204 0.0639,0.43949 0.10944,0.63756 0.0777,0.33797 0.12159,0.68649 0.14526,1.03192 0.0737,1.07597 -0.25305,2.10298 -0.76573,3.03562 -0.60266,1.09633 -1.60663,1.90677 -2.57125,2.67149 -1.03032,0.81678 -2.12987,1.57857 -3.27914,2.21994 -1.15032,0.64195 -2.34843,1.18986 -3.55257,1.72173 -0.74956,0.33108 -1.51066,0.63904 -2.27713,0.92807 -0.40618,0.15317 -0.84713,0.36872 -1.27511,0.44235 0.19132,-0.52543 0.5544,-1.03543 0.83638,-1.51798 0.3875,-0.6631 0.73174,-1.35786 1.09732,-2.0336 0.21148,-0.39089 0.63672,-1.05967 0.10024,-1.39671 -0.0731,-0.0459 -0.15708,-0.0745 -0.24254,-0.0851 -0.58755,-0.0732 -0.75426,0.55793 -0.98459,0.96554 -0.756,1.33786 -1.46709,2.70072 -2.22553,4.0373 -1.33228,2.3478 -2.63255,4.71009 -4.04487,7.01213 -0.83354,1.35864 -1.67878,2.70827 -2.64684,3.97683 -1.25746,1.64781 -2.81608,3.43462 -4.85463,4.09778 2.51197,-3.67638 4.72654,-7.54211 7.02593,-11.35277 0.40615,-0.67309 0.81332,-1.34852 1.19821,-2.03393 0.15286,-0.27221 0.38454,-0.54665 0.47061,-0.84985 0.15629,-0.55052 -0.37531,-1.03285 -0.89126,-0.74634 -0.16176,0.0898 -0.25426,0.25851 -0.34606,0.41244 -0.14969,0.25102 -0.29423,0.50549 -0.43971,0.75883 -0.52819,0.91975 -1.0914,1.82236 -1.63727,2.73195 -1.32826,2.21329 -2.61126,4.45313 -3.9706,6.64767 -0.82898,1.33833 -1.65262,2.68474 -2.59754,3.94628 -0.73266,0.97815 -1.55081,1.96428 -2.57718,2.64618 -0.43614,0.28977 -0.96564,0.57381 -1.48773,0.66254 0.2196,-0.37617 0.40885,-0.7706 0.61652,-1.15352 0.54206,-0.99956 1.10908,-1.98803 1.67375,-2.97482 1.72434,-3.01345 3.48515,-6.00465 5.21382,-9.0155 0.84784,-1.47671 1.72136,-2.93894 2.59295,-4.40144 0.2393,-0.40155 0.46514,-0.81145 0.70263,-1.21432 0.12035,-0.20415 0.22264,-0.45786 0.38384,-0.6323 0.18706,-0.20241 0.46278,-0.33633 0.68817,-0.49164 0.37577,-0.25893 0.73634,-0.53458 1.09305,-0.81895 0.1793,-0.14294 0.35373,-0.29345 0.51629,-0.45517 0.0893,-0.0888 0.18036,-0.19874 0.28492,-0.28 0.16248,0.0619 0.33488,0.0936 0.50873,0.0937 0.79026,0 1.43089,-0.64063 1.43089,-1.43088 0,-0.79026 -0.64063,-1.43089 -1.43089,-1.43089 -0.79025,0 -1.43088,0.64063 -1.43088,1.43089 -2e-5,0.1622 0.0275,0.32323 0.0815,0.47619 -0.10414,0.13514 -0.26414,0.2439 -0.38549,0.35394 -0.37278,0.33804 -0.76699,0.66633 -1.18408,0.94878 -2.33939,1.58418 -4.98855,2.66176 -7.6211,3.65346 -0.71993,0.2712 -1.44557,0.53751 -2.17985,0.76901 -0.007,0.002 -0.0147,0.005 -0.022,0.007 -0.0251,0.008 -0.0502,0.0159 -0.0753,0.0237 -0.007,0.002 -0.014,0.004 -0.021,0.007 -0.34806,0.10783 -0.70022,0.20374 -1.05525,0.2892 a 0.01682621,0.01682621 0 0 1 -0.0161,-0.0168 0.01682621,0.01682621 0 0 1 9.9e-4,-0.006 l 2.83843,-6.08702 7.81532,-7.81531 c 0.0417,-0.0417 0.0766,-0.0872 0.10517,-0.13573 l 1.01286,-1.01286 0.004,-0.004 c 0.13038,-0.13039 0.19445,-0.30111 0.19258,-0.47127 -10e-6,-3.3e-4 0,-5.1e-4 0,-9.9e-4 v -2.75266 l 3.20914,-3.2088 c 0.13198,0.0399 0.27201,0.0615 0.41737,0.0615 0.79271,-1e-5 1.43088,-0.63818 1.43088,-1.43089 0,-0.79272 -0.63817,-1.43089 -1.43088,-1.43089 -0.79272,0 -1.43089,0.63817 -1.43089,1.43089 0,0.14535 0.0215,0.28539 0.0615,0.41737 l -3.40534,3.40566 c -0.0476,0.0476 -0.0859,0.10061 -0.11633,0.15676 -0.0211,0.0389 -0.0381,0.0791 -0.0509,0.12061 -0.0133,0.0429 -0.0225,0.0868 -0.0269,0.13113 -0.002,0.0229 -0.004,0.0457 -0.004,0.0687 0,6.1e-4 0,0.001 0,0.002 v 2.79834 l -0.82127,0.82094 -3.3e-4,3.2e-4 c -0.035,0.0237 -0.0682,0.0511 -0.0993,0.0822 l -7.85245,7.85279 c -0.0167,0.0167 -0.0324,0.034 -0.047,0.0519 -0.0561,0.0551 -0.10339,0.12117 -0.13868,0.19685 l -0.009,0.0191 c -3e-4,5.8e-4 -6.7e-4,10e-4 -9.9e-4,0.002 -0.003,0.005 -0.005,0.0107 -0.008,0.0161 l -1.82229,3.90848 -1.62347,3.48125 c -0.002,0.005 -0.005,0.0103 -0.007,0.0154 l -0.0102,0.0217 c -0.15758,0.33794 -0.0126,0.73664 0.32535,0.89422 0.0898,0.0419 0.18393,0.0622 0.27671,0.0634 0.0975,0.004 0.19966,-0.01 0.30202,-0.0345 0.62967,-0.15062 1.27703,-0.34949 1.88243,-0.57873 0.81016,-0.30676 1.64597,-0.54731 2.45952,-0.84558 0.99209,-0.36372 1.97007,-0.77598 2.94525,-1.18177 0.47806,-0.19893 0.95335,-0.40259 1.42694,-0.61193 0.30332,-0.13408 0.64024,-0.25819 0.91098,-0.45089 -0.0614,0.20861 -0.20048,0.38945 -0.30826,0.57676 -0.21101,0.36671 -0.4293,0.72883 -0.64511,1.09272 -0.63391,1.06889 -1.24856,2.14883 -1.88244,3.21768 -1.37177,2.31308 -2.69338,4.65576 -4.04355,6.98157 -0.42102,0.72526 -0.81448,1.46656 -1.24586,2.18577 -0.70641,1.17772 -1.30449,2.42014 -1.98563,3.61237 -0.23408,0.40974 -0.6405,1.06213 -0.40751,1.54789 0.12789,0.26664 0.46283,0.39137 0.74141,0.39468 0.58898,0.007 1.25008,-0.15002 1.7914,-0.37694 0.7507,-0.31469 1.43007,-0.78419 2.03426,-1.32802 0.20405,-0.18366 0.40297,-0.38274 0.59254,-0.58136 0.10642,-0.11151 0.21513,-0.26954 0.35164,-0.34474 0.13034,-0.0718 0.33657,-0.0505 0.48309,-0.0707 0.2766,-0.038 0.55279,-0.10015 0.81963,-0.18273 0.90871,-0.28121 1.71849,-0.74172 2.48975,-1.29121 1.2696,-0.90455 2.29365,-2.09636 3.23839,-3.32219 1.40234,-1.81958 2.61973,-3.80966 3.76684,-5.79781 0.60127,-1.04214 1.21766,-2.07611 1.80422,-3.12666 0.16361,-0.29305 0.3352,-0.58381 0.49262,-0.88009 0.0728,-0.13691 0.12131,-0.30831 0.26357,-0.39042 0.16032,-0.0925 0.39649,-0.10737 0.57544,-0.15216 0.16962,-0.0424 0.34115,-0.10973 0.51629,-0.12258 0.42104,-0.0309 0.84145,0.0656 1.24488,0.17484 0.56771,0.15372 1.11926,0.3589 1.63957,0.63524 0.52722,0.28003 1.10815,0.7152 1.12164,1.37272 0.0102,0.49735 -0.40502,0.81328 -0.78775,1.04409 -0.28356,0.171 -0.5895,0.3443 -0.59943,0.71643 -0.0146,0.54738 0.58144,0.7137 0.99413,0.50807 0.33625,-0.16755 0.67089,-0.39801 0.93858,-0.66188 0.92421,-0.91099 0.85857,-2.39208 -0.0302,-3.30542 -0.60336,-0.62003 -1.48066,-1.00019 -2.27449,-1.30634 v -0.0306 c 1.19989,-0.40583 2.39022,-0.95981 3.522,-1.52521 0.29276,-0.14625 0.59803,-0.28344 0.88042,-0.44826 0.19762,-0.11534 0.44164,-0.30471 0.66812,-0.35 0.12988,-0.026 0.29822,0.0206 0.42493,0.0509 0.28514,0.0683 0.56989,0.15177 0.85018,0.23793 0.91554,0.28144 1.86711,0.57299 2.70238,1.05066 0.29362,0.16791 0.61468,0.3316 0.84033,0.59056 0.43362,0.49764 0.27443,1.12806 -0.17254,1.54427 -0.18397,0.17132 -0.46459,0.28863 -0.61159,0.4913 -0.22251,0.30678 -0.0849,0.83587 0.30793,0.92611 0.44071,0.10122 0.74721,-0.17124 1.06282,-0.43151 0.82857,-0.68328 1.21733,-1.83522 0.71741,-2.83482 -0.24116,-0.48219 -0.66226,-0.82532 -1.11211,-1.10586 -0.70054,-0.43688 -1.47506,-0.73783 -2.24689,-1.02075 -0.3891,-0.14262 -0.77976,-0.32971 -1.18408,-0.42328 0.13096,-0.17737 0.335,-0.28383 0.51629,-0.40488 0.27798,-0.18561 0.55091,-0.38232 0.81962,-0.58103 0.81342,-0.6015 1.58803,-1.255 2.33792,-1.93338 0.87196,-0.78878 1.6604,-1.67252 2.41187,-2.57519 1.29437,-1.5548 2.42055,-3.27638 3.23971,-5.13003 1.32853,-3.00629 1.75809,-6.34245 1.35365,-9.59226 -0.16236,-1.30461 -0.51787,-2.56649 -0.75849,-3.85524 -0.0679,-0.36359 -0.13304,-0.72541 -0.17878,-1.09272 -0.014,-0.11278 -0.0896,-0.27694 -0.0591,-0.38778 0.0291,-0.10574 0.18793,-0.1164 0.27638,-0.13442 0.28956,-0.059 0.57579,-0.13224 0.85019,-0.24286 0.72713,-0.29313 1.39287,-0.81966 1.7306,-1.54197 0.21372,0.16728 0.31021,0.45316 0.40817,0.69803 0.22153,0.55377 0.32022,1.14931 0.62408,1.6698 0.18104,-0.061 0.32218,-0.20093 0.45549,-0.33422 0.26733,-0.26734 0.50877,-0.56578 0.71836,-0.88012 1.11092,-1.66618 1.01789,-3.92571 0.0454,-5.61575 -0.43824,-0.76221 -1.03624,-1.37638 -1.67474,-1.97051 -0.26335,-0.24505 -0.60174,-0.4463 -0.82159,-0.73384 -0.20266,-0.26507 -0.2061,-0.66081 -0.3122,-0.96883 -0.17976,-0.52183 -0.4409,-0.98789 -0.77559,-1.42662 -1.71113,-2.24306 -4.64789,-3.18422 -7.38151,-3.06453 z m 1.59323,4.86843 c -1.29615,-1.3e-4 -2.34692,1.05065 -2.3468,2.34679 6e-5,1.29603 1.05078,2.3466 2.3468,2.34647 1.2959,-5e-5 2.34641,-1.05057 2.34647,-2.34647 1.2e-4,-1.29601 -1.05044,-2.34674 -2.34647,-2.34679 z m 0,1.17323 c 0.64808,3e-5 1.17339,0.52548 1.17324,1.17356 -4e-5,0.64795 -0.52529,1.17321 -1.17324,1.17324 -0.64807,1.5e-4 -1.17353,-0.52516 -1.17356,-1.17324 -1.5e-4,-0.6482 0.52536,-1.17371 1.17356,-1.17356 z m -5.45143,0.187 c -0.19372,-0.002 -0.38673,0.0802 -0.52155,0.24088 l -1.18966,1.41774 c -0.12039,0.14348 -0.17079,0.32183 -0.15512,0.49395 -0.002,0.0203 -0.003,0.041 -0.003,0.0618 v 4.09022 c -1.5e-4,0.023 0.001,0.046 0.004,0.069 1.8e-4,0.002 6.6e-4,0.003 6.6e-4,0.005 0.0134,0.12911 0.0637,0.25579 0.1538,0.36314 l 4.16942,4.96933 v 8.8732 l -0.79498,0.94745 c -0.20971,0.24993 -0.1773,0.62009 0.0726,0.82981 l 0.12883,0.10812 c 0.24993,0.20972 0.62009,0.1773 0.82981,-0.0726 l 0.97145,-1.15778 c 0.0981,-0.11689 0.14334,-0.25987 0.13803,-0.40061 2.3e-4,-0.008 3.3e-4,-0.0156 3.3e-4,-0.0233 v -9.34282 c -2e-5,-10e-4 -2e-5,-0.002 0,-0.004 8.2e-4,-0.15378 -0.051,-0.30886 -0.15808,-0.43643 l -4.16936,-4.96934 v -3.72543 l 1.03291,-1.23108 c 0.23967,-0.28563 0.20281,-0.70844 -0.0828,-0.94812 -0.12497,-0.10485 -0.27623,-0.15677 -0.4269,-0.15806 z m 11.50953,0.48144 c 0.21545,-0.0158 0.37755,0.10124 0.54652,0.21822 0.34121,0.23623 0.65386,0.51693 0.93366,0.82422 0.79384,0.87184 1.42792,1.92566 1.40394,3.14374 -0.0115,0.58562 -0.17192,1.14141 -0.33357,1.70005 h -0.0608 c -0.4139,-0.98868 -1.38485,-1.73357 -2.39872,-2.02079 -0.35326,-0.10008 -0.72802,-0.15552 -1.09305,-0.19028 -0.12164,-0.0116 -0.34135,0.0352 -0.42427,-0.0812 -0.0567,-0.0795 -0.0199,-0.20044 -0.009,-0.28821 0.0274,-0.23182 0.031,-0.46614 0.0611,-0.69803 0.093,-0.7162 0.17302,-1.5073 0.63591,-2.09441 0.17058,-0.2164 0.44706,-0.49198 0.73875,-0.51334 z m -1.38521,4.84839 c 0.0901,-0.006 0.19641,0.0195 0.26193,0.0273 0.30026,0.0355 0.58603,0.0731 0.88041,0.1492 0.094,0.0243 0.27901,0.0527 0.32996,0.14789 0.0719,0.13423 -0.21399,0.40721 -0.29216,0.50084 -0.35631,0.42675 -0.92622,0.77766 -1.4953,0.78939 0.0485,-0.38395 0.0671,-0.76982 0.11305,-1.15352 0.014,-0.1167 -0.0104,-0.31049 0.0697,-0.40685 0.0301,-0.0362 0.0784,-0.0508 0.13244,-0.0542 z m -15.89026,7.66874 c -1.32455,0 -2.41219,1.08732 -2.41219,2.41187 0,0.42124 0.11004,0.81875 0.30267,1.1647 l -4.86974,4.86974 c -0.26366,0.26365 -0.26366,0.68807 0,0.95173 0.26366,0.26366 0.68807,0.26366 0.95173,0 l 4.87172,-4.87172 h 3.3e-4 c 0.34383,0.18955 0.73789,0.29775 1.15548,0.29775 1.32455,0 2.4122,-1.08764 2.4122,-2.4122 0,-1.32455 -1.08765,-2.41187 -2.4122,-2.41187 z m 0.0841,1.38028 c 0.6021,0 1.06577,0.46335 1.06577,1.06544 0,0.6021 -0.46367,1.06578 -1.06577,1.06578 -0.60209,0 -1.06577,-0.46368 -1.06577,-1.06578 0,-0.60209 0.46368,-1.06544 1.06577,-1.06544 z m 5.1435,2.38953 c -0.79025,0 -1.43088,0.64062 -1.43089,1.43087 6e-5,0.42943 0.19297,0.83612 0.5255,1.10784 -0.01,0.25188 -0.172,0.54888 -0.26028,0.78117 -0.21406,0.56327 -0.43766,1.12674 -0.70033,1.66947 -1.09898,2.27083 -2.78133,4.41889 -4.81979,5.91515 -0.0414,0.0304 -0.083,0.0469 -0.12488,0.0539 -0.20732,-0.11067 -0.4387,-0.16857 -0.67371,-0.16859 -0.79025,0 -1.43088,0.64063 -1.43089,1.43088 10e-6,0.79026 0.64064,1.43088 1.43089,1.43088 0.79026,0 1.43088,-0.64062 1.43089,-1.43088 0,-0.0888 -0.008,-0.17732 -0.0247,-0.26455 0.0755,-0.0645 0.16747,-0.11681 0.24253,-0.17155 0.19071,-0.1391 0.36736,-0.29357 0.54652,-0.44695 1.91347,-1.63799 3.47802,-3.62212 4.57693,-5.89279 0.25521,-0.52734 0.48609,-1.08491 0.67568,-1.63923 0.1054,-0.30818 0.16569,-0.67435 0.30497,-0.96916 0.67457,-0.12887 1.16245,-0.71882 1.16239,-1.40558 0,-0.79026 -0.64063,-1.43088 -1.43088,-1.43088 z m -5.31307,2.85158 c -0.79272,0 -1.43089,0.63817 -1.43089,1.43088 0,0.15558 0.0245,0.30529 0.07,0.4453 l -2.56238,2.56272 -0.37925,0.37924 -0.4785,0.4785 h -2.37473 c -5e-4,0 -10e-4,0 -0.002,0 -0.0238,0 -0.0476,0.001 -0.0713,0.004 -0.0234,0.002 -0.0466,0.006 -0.0697,0.0112 -0.0224,0.005 -0.0445,0.0106 -0.0664,0.0178 l -3.3e-4,3.3e-4 h -3.3e-4 -3.2e-4 c -0.0217,0.007 -0.0431,0.0153 -0.0641,0.0247 -0.0254,0.0113 -0.0502,0.0249 -0.0743,0.0394 -0.006,0.004 -0.0121,0.007 -0.0181,0.0112 -0.0228,0.0148 -0.0451,0.0308 -0.0664,0.0486 -0.004,0.003 -0.007,0.007 -0.0105,0.01 -0.0115,0.0101 -0.0232,0.0199 -0.0342,0.0309 l -3.50459,3.50491 -0.92643,0.92676 -1.53539,1.53572 a 1.4302262,1.4302284 0 0 0 -3.3e-4,0 1.4302262,1.4302284 0 0 0 -0.40915,-0.0598 1.4302262,1.4302284 0 0 0 -1.43023,1.43023 1.4302262,1.4302284 0 0 0 1.43023,1.43023 1.4302262,1.4302284 0 0 0 1.43023,-1.43023 1.4302262,1.4302284 0 0 0 -0.0641,-0.42329 1.4302262,1.4302284 0 0 0 0,-3.3e-4 l 0.23169,-0.23169 1.27577,-1.2761 1.7651,-1.76477 1.49859,-1.49859 c 0.007,-0.007 0.0135,-0.0139 0.0201,-0.021 l 0.97375,-0.97375 h 2.31886 c 0.0125,0 0.0251,-10e-5 0.0375,-9.9e-4 0.1789,0.006 0.35945,-0.0604 0.49657,-0.19751 l 0.96028,-0.96027 0.38648,-0.38648 2.27943,-2.2791 c 0.003,-0.003 0.006,-0.007 0.01,-0.01 0.1237,0.0347 0.25436,0.0532 0.38943,0.0532 0.79271,0 1.43089,-0.63817 1.43089,-1.43088 0,-0.79272 -0.63818,-1.43089 -1.43089,-1.43089 z m 7.3687,5.38735 c -0.92929,0 -1.68263,0.75332 -1.68263,1.68261 -3e-5,0.20592 0.0377,0.41011 0.11141,0.60239 l -0.021,0.021 -0.75389,0.7539 -3.6482,3.6482 c -0.26366,0.26366 -0.26366,0.6884 0,0.95206 0.26366,0.26366 0.68807,0.26366 0.95173,0 l 3.6482,-3.6482 0.75422,-0.75422 c 0.005,-0.005 0.009,-0.009 0.0131,-0.0135 h 3.3e-4 c 0.19928,0.0799 0.41201,0.12098 0.62671,0.12094 0.92929,0 1.68262,-0.75334 1.68262,-1.68263 0,-0.92929 -0.75333,-1.68261 -1.68262,-1.68261 z m 0,1.00956 c 0.37171,0 0.67304,0.30134 0.67304,0.67305 0,0.37172 -0.30133,0.67305 -0.67304,0.67305 -0.37172,0 -0.67305,-0.30133 -0.67305,-0.67305 0,-0.37171 0.30133,-0.67305 0.67305,-0.67305 z m 21.48924,2.96694 c -0.0662,0.002 -0.13337,0.014 -0.19948,0.0368 l -16.94354,5.83429 c -0.35255,0.1214 -0.53876,0.50289 -0.41737,0.85545 0.1214,0.35255 0.50322,0.53876 0.85577,0.41736 l 16.94354,-5.83429 c 0.35255,-0.1214 0.53844,-0.50288 0.41704,-0.85544 -0.0986,-0.28645 -0.36893,-0.46315 -0.65596,-0.45417 z m -21.97957,7.56785 c -0.0662,0.002 -0.13338,0.014 -0.19948,0.0368 l -3.50032,1.20512 c -0.35255,0.12139 -0.53843,0.50289 -0.41704,0.85543 0.1214,0.35256 0.50289,0.53877 0.85544,0.41737 l 3.49999,-1.2051 c 0.35255,-0.1214 0.53876,-0.50289 0.41737,-0.85545 -0.0986,-0.28645 -0.36894,-0.46315 -0.65596,-0.45417 z m -8.39339,2.89102 c -0.0662,0.002 -0.13338,0.014 -0.19948,0.0368 l -2.62516,0.90376 c -0.35255,0.12139 -0.53876,0.50321 -0.41737,0.85577 0.1214,0.35255 0.50322,0.53844 0.85578,0.41704 l 2.62482,-0.90375 c 0.35255,-0.1214 0.53876,-0.50289 0.41737,-0.85545 -0.0986,-0.28646 -0.36893,-0.46315 -0.65596,-0.45418 z m -19.01691,6.54777 c -0.0662,0.002 -0.13338,0.014 -0.19949,0.0368 l -11.45464,3.94397 c -0.35255,0.12139 -0.53876,0.50322 -0.41737,0.85577 0.1214,0.35256 0.50289,0.53843 0.85544,0.41705 l 11.45498,-3.94399 c 0.35255,-0.12139 0.53843,-0.50321 0.41704,-0.85576 -0.0986,-0.28645 -0.36893,-0.46282 -0.65596,-0.45385 z"
     transform="matrix(1.15745,0,0,1.15745,-69.046092,-216.67298)" />
  <path
     id="path58"
     style="baseline-shift:baseline;display:inline;overflow:visible;vector-effect:none;fill:#00ffff;stroke-width:0.736083;enable-background:accumulate;stop-color:#000000"
     d="m 267.02639,106.90467 c -1.86943,0.0818 -3.74607,0.54693 -5.41206,1.4078 -2.33872,1.20846 -4.31214,3.32239 -5.38163,5.7232 -0.70016,1.57174 -0.88539,3.28054 -1.47322,4.88371 -0.29136,0.79465 -0.69751,1.51015 -1.21645,2.17844 -0.58366,0.75161 -1.32582,1.37055 -2.04987,1.98217 -0.88815,0.75022 -1.78878,1.48686 -2.67104,2.24387 -1.02351,0.87818 -2.0439,1.76445 -2.98637,2.73037 -1.04402,1.06997 -2.00228,2.22041 -2.90916,3.40821 -1.20129,1.57344 -2.28214,3.26074 -3.24655,4.98908 -0.28951,0.51885 -0.56382,1.0498 -0.8296,1.58124 -0.10012,0.20015 -0.18559,0.42054 -0.29214,0.62155 -0.91126,0.005 -1.64744,0.74489 -1.64742,1.65617 0,0.91468 0.74149,1.65618 1.65617,1.65619 0.91468,-1e-5 1.65618,-0.74151 1.65618,-1.65619 -4e-5,-0.37912 -0.13014,-0.74674 -0.36859,-1.04148 0.099,-0.3167 0.3094,-0.63068 0.45417,-0.92014 0.42067,-0.84103 0.8956,-1.65372 1.37927,-2.45955 1.3555,-2.25842 2.91023,-4.39601 4.70607,-6.32421 0.66997,-0.71934 1.35787,-1.46344 2.14686,-2.05634 0.92168,-0.69258 1.94503,-1.2471 3.05751,-1.56564 2.09568,-0.60006 4.51405,-0.4074 6.39611,0.72157 0.97272,0.58351 1.81404,1.35076 2.4371,2.30322 0.27992,0.4279 0.56855,1.00745 1.1826,0.83264 0.53922,-0.15349 0.55648,-0.77638 0.30316,-1.18412 -0.56321,-0.90654 -1.23551,-1.70646 -2.06013,-2.38613 -1.41569,-1.16682 -3.26818,-1.87717 -5.09597,-2.00233 -0.47435,-0.0325 -1.0026,-0.0422 -1.47588,0.002 -0.35222,0.0335 -0.7029,0.10671 -1.05442,0.13465 0.38798,-0.47998 0.96285,-0.8338 1.40552,-1.26552 0.88962,-0.86763 1.5928,-1.79578 2.13469,-2.91563 0.7271,-1.50259 0.88016,-3.2196 1.45191,-4.77834 0.96919,-2.64224 2.98152,-4.85267 5.51553,-6.07733 3.07028,-1.48387 7.05477,-1.48728 9.94544,0.4028 1.0223,0.66845 2.0136,1.57727 2.43558,2.75853 0.0785,0.21967 0.19925,0.57525 0.10382,0.80451 -0.10093,0.24243 -0.54585,0.39857 -0.74706,0.55878 -0.43864,0.34926 -0.79222,0.79304 -1.02362,1.3066 -0.39288,0.87202 -0.47298,1.80314 -0.56372,2.74066 -0.10984,1.13515 -0.19077,2.273 -0.30431,3.4082 -0.0946,0.94517 -0.23115,1.89687 -0.14073,2.84602 0.10567,1.10893 0.40637,2.18418 0.64703,3.26747 0.26987,1.2148 0.48834,2.44956 0.60633,3.68893 0.36348,3.81835 -0.6315,7.64853 -2.4432,10.99758 -0.59121,1.0929 -1.26473,2.18789 -2.08448,3.12672 0.16389,-0.58306 0.20211,-1.29558 0.13085,-1.89733 -0.029,-0.24528 -0.0569,-0.49572 -0.10799,-0.73755 -0.0249,-0.1175 -0.085,-0.24426 -0.0521,-0.36631 0.037,-0.13754 0.16084,-0.25485 0.23774,-0.37164 0.15144,-0.22997 0.29741,-0.46593 0.4382,-0.70257 0.38614,-0.64898 0.71057,-1.35998 0.95818,-2.07307 0.15009,-0.43224 0.29206,-0.88028 0.35337,-1.33513 0.069,-0.51181 0.0453,-1.03022 0.0453,-1.54587 v -2.35417 -2.10808 c 0,-0.33393 0.0571,-0.72722 -0.0137,-1.05404 -0.10926,-0.50517 -0.71645,-0.73433 -1.14608,-0.4751 -0.33844,0.20421 -0.38645,0.57117 -0.38647,0.93193 -3e-5,0.42784 0.009,0.85526 0.0116,1.28304 0.006,1.15379 0.0122,2.30949 -0.006,3.46298 -0.014,0.92362 0.0286,1.78319 -0.30202,2.66724 -0.28006,0.7488 -0.65549,1.46474 -1.07686,2.14344 -0.24824,0.39984 -0.62198,0.79101 -0.7174,1.26477 -0.0476,0.23611 0.074,0.50868 0.12667,0.73794 0.0899,0.39118 0.14074,0.79458 0.16813,1.19439 0.0853,1.24539 -0.29289,2.4341 -0.88629,3.51358 -0.69755,1.26895 -1.85959,2.20699 -2.97609,3.09212 -1.19255,0.94538 -2.46522,1.82711 -3.79544,2.56947 -1.33144,0.74302 -2.71819,1.3772 -4.11193,1.99282 -0.86757,0.3832 -1.74851,0.73965 -2.63566,1.07419 -0.47013,0.17729 -0.98051,0.42677 -1.47588,0.512 0.22145,-0.60816 0.64169,-1.19846 0.96807,-1.75699 0.44851,-0.7675 0.84695,-1.57165 1.2701,-2.35379 0.24477,-0.45243 0.73697,-1.22651 0.11602,-1.61662 -0.0846,-0.0531 -0.18181,-0.0862 -0.28073,-0.0985 -0.68006,-0.0847 -0.87302,0.64578 -1.13961,1.11756 -0.87504,1.54851 -1.69809,3.12595 -2.57594,4.67298 -1.54205,2.71746 -3.04705,5.45169 -4.68174,8.11619 -0.96478,1.57256 -1.9431,3.13468 -3.06358,4.60298 -1.45545,1.90726 -3.25947,3.9754 -5.61899,4.74297 2.90748,-4.25522 5.47073,-8.72961 8.13216,-13.14026 0.4701,-0.77907 0.94138,-1.56084 1.38687,-2.35417 0.17692,-0.31507 0.44508,-0.63272 0.5447,-0.98366 0.1809,-0.6372 -0.4344,-1.19547 -1.03158,-0.86385 -0.18723,0.10394 -0.2943,0.29921 -0.40055,0.47738 -0.17326,0.29054 -0.34056,0.58508 -0.50894,0.87831 -0.61136,1.06456 -1.26325,2.10929 -1.89506,3.16209 -1.5374,2.56177 -3.02241,5.15428 -4.59577,7.69435 -0.95951,1.54905 -1.91283,3.10745 -3.00653,4.56762 -0.84801,1.13216 -1.79498,2.27355 -2.98295,3.06282 -0.50481,0.33539 -1.11768,0.66416 -1.72198,0.76686 0.25418,-0.4354 0.47323,-0.89193 0.71359,-1.33515 0.62741,-1.15694 1.28371,-2.30104 1.93729,-3.4432 1.99583,-3.48792 4.03388,-6.95008 6.03473,-10.43499 0.98134,-1.70922 1.99239,-3.40168 3.00121,-5.09445 0.27698,-0.46477 0.53838,-0.93921 0.81326,-1.40551 0.1393,-0.2363 0.2577,-0.52995 0.44428,-0.73186 0.21651,-0.23428 0.53564,-0.38928 0.79652,-0.56905 0.43493,-0.2997 0.85228,-0.61875 1.26515,-0.94789 0.20753,-0.16545 0.40943,-0.33965 0.59758,-0.52684 0.10336,-0.10278 0.20876,-0.23003 0.32978,-0.32408 0.18806,0.0716 0.38761,0.10833 0.58883,0.10845 0.91469,0 1.65618,-0.7415 1.65618,-1.65617 0,-0.91469 -0.74149,-1.65619 -1.65618,-1.65619 -0.91467,0 -1.65617,0.7415 -1.65617,1.65619 -2e-5,0.18774 0.0318,0.37412 0.0943,0.55116 -0.12054,0.15642 -0.30573,0.28231 -0.44618,0.40967 -0.43148,0.39127 -0.88776,0.77125 -1.37052,1.09817 -2.70772,1.83361 -5.774,3.08085 -8.82104,4.22869 -0.83328,0.3139 -1.67318,0.62215 -2.52307,0.89009 -0.008,0.002 -0.017,0.006 -0.0255,0.008 -0.029,0.009 -0.0581,0.0184 -0.0872,0.0274 -0.008,0.002 -0.0162,0.005 -0.0243,0.008 -0.40287,0.12481 -0.81047,0.23582 -1.2214,0.33474 a 0.0194755,0.0194755 0 0 1 -0.0186,-0.0195 0.0194755,0.0194755 0 0 1 0.001,-0.007 l 3.28534,-7.04543 9.04584,-9.04583 c 0.0483,-0.0483 0.0887,-0.10093 0.12173,-0.1571 l 1.17233,-1.17233 0.005,-0.005 c 0.15091,-0.15092 0.22507,-0.34852 0.22291,-0.54547 -2e-5,-3.9e-4 0,-5.9e-4 0,-0.001 v -3.18607 l 3.71442,-3.71402 c 0.15276,0.0462 0.31483,0.0712 0.48308,0.0712 0.91752,-1e-5 1.65617,-0.73866 1.65617,-1.65618 0,-0.91754 -0.73865,-1.65618 -1.65617,-1.65618 -0.91753,0 -1.65618,0.73864 -1.65618,1.65618 0,0.16823 0.0249,0.33032 0.0712,0.48308 l -3.94151,3.94188 c -0.0551,0.0551 -0.0994,0.11646 -0.13465,0.18145 -0.0244,0.045 -0.0441,0.0915 -0.0589,0.1396 -0.0154,0.0497 -0.026,0.10046 -0.0311,0.15177 -0.002,0.0265 -0.005,0.0529 -0.005,0.0795 0,7.1e-4 0,0.001 0,0.002 v 3.23894 l -0.95058,0.9502 -3.8e-4,3.7e-4 c -0.0405,0.0274 -0.0789,0.0591 -0.11493,0.0951 l -9.08882,9.08921 c -0.0193,0.0193 -0.0375,0.0394 -0.0544,0.0601 -0.0649,0.0638 -0.11967,0.14024 -0.16052,0.22784 l -0.0104,0.0221 c -3.5e-4,6.7e-4 -7.8e-4,0.001 -0.001,0.002 -0.003,0.006 -0.006,0.0124 -0.009,0.0186 l -2.10921,4.52387 -1.87908,4.02937 c -0.002,0.006 -0.006,0.0119 -0.008,0.0178 l -0.0118,0.0251 c -0.18239,0.39115 -0.0146,0.85263 0.37657,1.03502 0.10394,0.0485 0.21289,0.072 0.32028,0.0734 0.11285,0.005 0.2311,-0.0116 0.34958,-0.0399 0.72881,-0.17434 1.47809,-0.40452 2.17881,-0.66985 0.93772,-0.35506 1.90513,-0.63349 2.84678,-0.97872 1.14829,-0.42099 2.28025,-0.89816 3.40898,-1.36784 0.55333,-0.23025 1.10345,-0.46598 1.65161,-0.70828 0.35108,-0.15519 0.74104,-0.29884 1.05441,-0.52188 -0.0711,0.24145 -0.23204,0.45077 -0.35679,0.66757 -0.24424,0.42445 -0.4969,0.84358 -0.74669,1.26477 -0.73372,1.23719 -1.44514,2.48716 -2.17883,3.7243 -1.58775,2.67728 -3.11745,5.38881 -4.6802,8.08082 -0.48731,0.83945 -0.94272,1.69747 -1.44202,2.52992 -0.81764,1.36315 -1.50989,2.80119 -2.29827,4.18114 -0.27094,0.47425 -0.74135,1.22936 -0.47167,1.7916 0.14802,0.30863 0.5357,0.45299 0.85814,0.45683 0.68172,0.008 1.44691,-0.17365 2.07346,-0.43629 0.86889,-0.36424 1.65523,-0.90766 2.35455,-1.53712 0.23618,-0.21258 0.46642,-0.443 0.68584,-0.6729 0.12317,-0.12906 0.249,-0.31197 0.407,-0.39901 0.15086,-0.0831 0.38956,-0.0585 0.55915,-0.0818 0.32015,-0.044 0.63983,-0.11592 0.94868,-0.2115 1.05179,-0.32548 1.98907,-0.8585 2.88177,-1.49451 1.46949,-1.04697 2.65478,-2.42643 3.74827,-3.84527 1.62314,-2.10607 3.03221,-4.40949 4.35993,-6.71067 0.69594,-1.20623 1.40938,-2.403 2.08829,-3.61896 0.18937,-0.33919 0.38798,-0.67573 0.57019,-1.01866 0.0843,-0.15846 0.14041,-0.35685 0.30507,-0.45189 0.18556,-0.10706 0.45891,-0.12427 0.66604,-0.17611 0.19633,-0.0491 0.39486,-0.12701 0.59758,-0.14188 0.48733,-0.0358 0.97394,0.0759 1.44089,0.20236 0.65709,0.17793 1.29548,0.41541 1.89772,0.73526 0.61023,0.32412 1.28262,0.82781 1.29824,1.58886 0.0118,0.57565 -0.46879,0.94133 -0.91178,1.20848 -0.32821,0.19792 -0.68232,0.39851 -0.69381,0.82923 -0.0169,0.63357 0.67298,0.82607 1.15065,0.58807 0.38919,-0.19393 0.77652,-0.46068 1.08636,-0.7661 1.06973,-1.05442 0.99375,-2.76871 -0.0349,-3.82585 -0.69836,-0.71766 -1.71379,-1.15767 -2.63261,-1.51203 v -0.0354 c 1.38881,-0.46972 2.76656,-1.11093 4.07654,-1.76535 0.33885,-0.16928 0.69219,-0.32807 1.01904,-0.51884 0.22873,-0.1335 0.51118,-0.35269 0.77331,-0.40511 0.15033,-0.0301 0.34518,0.0239 0.49184,0.0589 0.33004,0.079 0.65962,0.17566 0.98404,0.27539 1.05969,0.32575 2.16109,0.66321 3.12787,1.21609 0.33985,0.19434 0.71146,0.38381 0.97264,0.68354 0.50189,0.57599 0.31764,1.30567 -0.19971,1.78742 -0.21293,0.19829 -0.53774,0.33407 -0.70788,0.56865 -0.25755,0.35508 -0.0983,0.96748 0.35641,1.07193 0.5101,0.11715 0.86486,-0.19821 1.23016,-0.49945 0.95903,-0.79087 1.409,-2.12418 0.83037,-3.28117 -0.27913,-0.55811 -0.76653,-0.95526 -1.28721,-1.27997 -0.81084,-0.50567 -1.70731,-0.85401 -2.60066,-1.18147 -0.45037,-0.16508 -0.90254,-0.38162 -1.37052,-0.48993 0.15158,-0.20529 0.38775,-0.32852 0.59758,-0.46863 0.32175,-0.21483 0.63765,-0.44251 0.94867,-0.67251 0.94149,-0.69621 1.83807,-1.4526 2.70603,-2.23779 1.00925,-0.91297 1.92183,-1.93586 2.79162,-2.98065 1.49816,-1.79961 2.80166,-3.79225 3.7498,-5.93776 1.5377,-3.47963 2.0349,-7.34107 1.56678,-11.10256 -0.18792,-1.51002 -0.59941,-2.97058 -0.87791,-4.46225 -0.0786,-0.42083 -0.15399,-0.83962 -0.20693,-1.26476 -0.0162,-0.13054 -0.10371,-0.32055 -0.0684,-0.44884 0.0337,-0.12239 0.21752,-0.13473 0.3199,-0.15558 0.33515,-0.0683 0.66645,-0.15307 0.98405,-0.2811 0.84162,-0.33929 1.61218,-0.94872 2.00308,-1.78476 0.24737,0.19362 0.35906,0.52451 0.47244,0.80794 0.25641,0.64096 0.37064,1.33027 0.72234,1.93271 0.20955,-0.0706 0.37291,-0.23257 0.52721,-0.38684 0.30942,-0.30944 0.58887,-0.65487 0.83146,-1.0187 1.28584,-1.92852 1.17816,-4.54381 0.0525,-6.49995 -0.50724,-0.88222 -1.19939,-1.59309 -1.93843,-2.28077 -0.30481,-0.28363 -0.69648,-0.51657 -0.95095,-0.84938 -0.23456,-0.3068 -0.23855,-0.76485 -0.36135,-1.12137 -0.20806,-0.60399 -0.51032,-1.14343 -0.89771,-1.65124 -1.98055,-2.59623 -5.3797,-3.68558 -8.54373,-3.54704 z m 1.84409,5.63497 c -1.50023,-1.5e-4 -2.71644,1.21607 -2.71631,2.71629 7e-5,1.50009 1.21623,2.71607 2.71631,2.71592 1.49994,-6e-5 2.71585,-1.21598 2.71592,-2.71592 1.4e-4,-1.50007 -1.21583,-2.71624 -2.71592,-2.71629 z m 0,1.35795 c 0.75012,4e-5 1.35814,0.60822 1.35796,1.35834 -4e-5,0.74997 -0.60799,1.35793 -1.35796,1.35796 -0.75011,1.8e-4 -1.3583,-0.60784 -1.35834,-1.35796 -1.7e-4,-0.75026 0.60808,-1.35851 1.35834,-1.35834 z m -6.30976,0.21644 c -0.22422,-0.002 -0.44762,0.0928 -0.60367,0.27881 l -1.37697,1.64096 c -0.13935,0.16607 -0.19768,0.37251 -0.17954,0.57173 -0.002,0.0235 -0.003,0.0475 -0.003,0.0715 v 4.73422 c -1.7e-4,0.0266 0.001,0.0532 0.005,0.0799 2.1e-4,0.002 7.7e-4,0.003 7.7e-4,0.006 0.0155,0.14944 0.0737,0.29607 0.17801,0.42032 l 4.8259,5.75175 v 10.27029 l -0.92015,1.09662 c -0.24273,0.28928 -0.20522,0.71773 0.084,0.96047 l 0.14911,0.12514 c 0.28929,0.24274 0.71773,0.20521 0.96047,-0.084 l 1.1244,-1.34007 c 0.11355,-0.1353 0.16591,-0.30079 0.15977,-0.46369 2.6e-4,-0.009 3.8e-4,-0.0181 3.8e-4,-0.027 v -10.81385 c -3e-5,-0.001 -3e-5,-0.002 0,-0.005 9.5e-4,-0.17799 -0.059,-0.35749 -0.18297,-0.50514 l -4.82583,-5.75176 v -4.312 l 1.19554,-1.42492 c 0.27741,-0.3306 0.23475,-0.81998 -0.0958,-1.0974 -0.14465,-0.12136 -0.31973,-0.18145 -0.49412,-0.18294 z m 13.32171,0.55725 c 0.24937,-0.0183 0.43699,0.11718 0.63257,0.25258 0.39493,0.27342 0.75681,0.59832 1.08066,0.95399 0.91883,1.00911 1.65275,2.22885 1.62499,3.63872 -0.0133,0.67783 -0.19899,1.32113 -0.38609,1.96772 h -0.0704 c -0.47907,-1.14434 -1.6029,-2.00652 -2.7764,-2.33896 -0.40888,-0.11584 -0.84265,-0.18001 -1.26515,-0.22024 -0.14079,-0.0134 -0.3951,0.0407 -0.49107,-0.094 -0.0656,-0.092 -0.023,-0.232 -0.0104,-0.33359 0.0317,-0.26832 0.0359,-0.53954 0.0707,-0.80794 0.10764,-0.82896 0.20026,-1.74462 0.73603,-2.42417 0.19744,-0.25047 0.51745,-0.56944 0.85507,-0.59417 z m -1.60332,5.61177 c 0.10429,-0.007 0.22734,0.0226 0.30318,0.0316 0.34753,0.0411 0.6783,0.0846 1.01903,0.1727 0.1088,0.0281 0.32294,0.061 0.38191,0.17117 0.0832,0.15537 -0.24768,0.47133 -0.33816,0.5797 -0.41241,0.49394 -1.07206,0.9001 -1.73074,0.91368 0.0561,-0.44441 0.0777,-0.89103 0.13085,-1.33514 0.0162,-0.13508 -0.012,-0.35938 0.0807,-0.47091 0.0348,-0.0419 0.0907,-0.0588 0.15329,-0.0627 z m -18.39218,8.87618 c -1.5331,0 -2.79199,1.25852 -2.79199,2.79162 0,0.48756 0.12737,0.94766 0.35033,1.34808 l -5.63648,5.63648 c -0.30517,0.30516 -0.30517,0.79641 0,1.10158 0.30517,0.30517 0.7964,0.30517 1.10158,0 l 5.63877,-5.63877 h 3.8e-4 c 0.39797,0.21939 0.85407,0.34463 1.33741,0.34463 1.5331,0 2.792,-1.25889 2.792,-2.792 0,-1.5331 -1.2589,-2.79162 -2.792,-2.79162 z m 0.0973,1.5976 c 0.69691,0 1.23358,0.53631 1.23358,1.2332 0,0.6969 -0.53667,1.23358 -1.23358,1.23358 -0.69688,0 -1.23357,-0.53668 -1.23357,-1.23358 0,-0.69689 0.53669,-1.2332 1.23357,-1.2332 z m 5.95335,2.76577 c -0.91468,0 -1.65617,0.74148 -1.65619,1.65616 7e-5,0.49704 0.22336,0.96776 0.60824,1.28227 -0.0116,0.29153 -0.19908,0.6353 -0.30126,0.90416 -0.24776,0.65196 -0.50657,1.30415 -0.81059,1.93233 -1.27202,2.62837 -3.21925,5.11464 -5.57867,6.84649 -0.0479,0.0352 -0.0961,0.0543 -0.14454,0.0624 -0.23996,-0.1281 -0.50777,-0.19512 -0.77979,-0.19514 -0.91467,0 -1.65617,0.7415 -1.65618,1.65617 1e-5,0.91469 0.74151,1.65618 1.65618,1.65618 0.91469,0 1.65617,-0.74149 1.65619,-1.65618 0,-0.10278 -0.009,-0.20524 -0.0286,-0.3062 0.0874,-0.0747 0.19384,-0.1352 0.28071,-0.19856 0.22074,-0.161 0.4252,-0.33979 0.63257,-0.51732 2.21475,-1.89589 4.02564,-4.19243 5.29757,-6.82061 0.29539,-0.61037 0.56263,-1.25573 0.78207,-1.89733 0.12199,-0.3567 0.19177,-0.78053 0.35298,-1.12175 0.78079,-0.14916 1.34548,-0.832 1.34541,-1.62689 0,-0.91469 -0.74149,-1.65617 -1.65617,-1.65617 z m -6.14961,3.30056 c -0.91754,0 -1.65619,0.73865 -1.65619,1.65617 0,0.18008 0.0284,0.35336 0.081,0.51541 l -2.96582,2.96622 -0.43897,0.43895 -0.55384,0.55384 h -2.74863 c -5.8e-4,0 -10e-4,0 -0.002,0 -0.0276,0 -0.0551,10e-4 -0.0825,0.005 -0.0271,0.002 -0.0539,0.007 -0.0807,0.013 -0.0259,0.006 -0.0515,0.0123 -0.0769,0.0206 l -3.8e-4,3.8e-4 h -3.8e-4 -3.7e-4 c -0.0251,0.008 -0.0499,0.0177 -0.0742,0.0286 -0.0294,0.0131 -0.0581,0.0288 -0.086,0.0456 -0.007,0.005 -0.014,0.008 -0.0209,0.013 -0.0264,0.0171 -0.0522,0.0356 -0.0769,0.0562 -0.005,0.003 -0.008,0.008 -0.0122,0.0116 -0.0133,0.0117 -0.0268,0.023 -0.0396,0.0358 l -4.05638,4.05676 -1.0723,1.07267 -1.77714,1.77752 a 1.6554153,1.6554179 0 0 0 -3.8e-4,0 1.6554153,1.6554179 0 0 0 -0.47357,-0.0692 1.6554153,1.6554179 0 0 0 -1.65542,1.65542 1.6554153,1.6554179 0 0 0 1.65542,1.65542 1.6554153,1.6554179 0 0 0 1.65542,-1.65542 1.6554153,1.6554179 0 0 0 -0.0742,-0.48994 1.6554153,1.6554179 0 0 0 0,-3.8e-4 l 0.26817,-0.26817 1.47664,-1.47702 2.04301,-2.04264 1.73455,-1.73454 c 0.008,-0.008 0.0156,-0.0161 0.0233,-0.0243 l 1.12707,-1.12707 h 2.68396 c 0.0145,0 0.0291,-1.2e-4 0.0434,-0.001 0.20706,0.007 0.41604,-0.0699 0.57475,-0.22861 l 1.11148,-1.11146 0.44733,-0.44733 2.63832,-2.63795 c 0.003,-0.003 0.007,-0.008 0.0116,-0.0116 0.14318,0.0402 0.29441,0.0616 0.45075,0.0616 0.91752,0 1.65618,-0.73865 1.65618,-1.65618 0,-0.91753 -0.73866,-1.65618 -1.65618,-1.65618 z m 8.5289,6.23559 c -1.07561,0 -1.94756,0.87193 -1.94756,1.94753 -4e-5,0.23834 0.0436,0.47468 0.12895,0.69724 l -0.0243,0.0243 -0.87259,0.87261 -4.22261,4.22261 c -0.30517,0.30517 -0.30517,0.79678 0,1.10196 0.30518,0.30517 0.79641,0.30517 1.10158,0 l 4.22261,-4.22261 0.87297,-0.87297 c 0.006,-0.006 0.0104,-0.0104 0.0152,-0.0156 h 3.8e-4 c 0.23066,0.0925 0.47688,0.14003 0.72538,0.13998 1.07561,0 1.94755,-0.87195 1.94755,-1.94756 0,-1.0756 -0.87194,-1.94753 -1.94755,-1.94753 z m 0,1.16851 c 0.43023,0 0.77901,0.34879 0.77901,0.77902 0,0.43025 -0.34878,0.77902 -0.77901,0.77902 -0.43025,0 -0.77902,-0.34877 -0.77902,-0.77902 0,-0.43023 0.34877,-0.77902 0.77902,-0.77902 z m 24.87272,3.43409 c -0.0766,0.002 -0.15437,0.0162 -0.23089,0.0426 l -19.6113,6.7529 c -0.40806,0.14051 -0.62359,0.58207 -0.48309,0.99014 0.14052,0.40806 0.58246,0.62359 0.99052,0.48307 l 19.6113,-6.7529 c 0.40806,-0.14051 0.62321,-0.58206 0.4827,-0.99013 -0.11413,-0.33155 -0.42702,-0.53607 -0.75924,-0.52567 z m -25.44026,8.7594 c -0.0766,0.002 -0.15438,0.0162 -0.23088,0.0426 l -4.05145,1.39486 c -0.40806,0.14051 -0.6232,0.58207 -0.4827,0.99012 0.14051,0.40807 0.58207,0.6236 0.99013,0.48309 l 4.05106,-1.39485 c 0.40806,-0.14051 0.62359,-0.58207 0.48309,-0.99014 -0.11413,-0.33155 -0.42703,-0.53607 -0.75925,-0.52568 z m -9.71492,3.34621 c -0.0766,0.002 -0.15438,0.0162 -0.23089,0.0426 l -3.03849,1.04606 c -0.40806,0.1405 -0.62359,0.58244 -0.48309,0.99051 0.14052,0.40806 0.58245,0.62321 0.99052,0.4827 l 3.0381,-1.04605 c 0.40806,-0.14051 0.62359,-0.58207 0.48309,-0.99014 -0.11413,-0.33156 -0.42702,-0.53607 -0.75924,-0.52569 z m -22.01113,7.57872 c -0.0766,0.002 -0.15438,0.0162 -0.2309,0.0426 l -13.25817,4.56495 c -0.40806,0.14051 -0.62359,0.58245 -0.48308,0.99051 0.14051,0.40807 0.58207,0.62321 0.99012,0.48272 l 13.25857,-4.56497 c 0.40806,-0.14051 0.62321,-0.58244 0.4827,-0.9905 -0.11412,-0.33155 -0.42701,-0.53569 -0.75924,-0.52531 z" />
</svg>
